<svg width="618" height="415" viewBox="0 0 618 415" fill="none" xmlns="http://www.w3.org/2000/svg">
<path fill-rule="evenodd" clip-rule="evenodd" d="M600.821 2.66403C605.049 4.54279 609.98 8.53517 612.094 11.3533C615.382 16.0502 615.852 24.9744 615.852 69.1253V121.496C603.17 135.587 600.352 136.761 590.723 137.231C584.617 137.231 574.988 137.7 569.587 137.7L559.489 137.935C559.489 328.63 559.489 330.508 564.186 331.683C568.648 332.857 568.882 334.736 568.882 362.213V391.568C614.677 391.568 615.852 391.803 617.261 396.735C617.965 399.788 618.2 404.72 617.73 408.007L617.026 413.879C147.335 414.818 8.77589 414.583 5.72291 413.879C1.26088 412.939 0.556287 411.06 0.556287 402.136V391.568C100.835 391.568 122.676 390.629 122.676 389.22C122.676 387.811 120.562 385.932 117.979 384.523C115.396 383.114 110.699 377.712 107.411 372.076C103.184 365.031 101.305 358.455 101.07 349.296C100.835 340.372 102.244 333.561 105.532 326.986C108.116 321.819 113.752 314.774 118.214 311.251C122.676 307.728 130.896 303.501 136.767 302.092C145.221 299.744 149.683 299.744 159.077 302.327C167.297 304.675 173.637 308.433 180.918 315.713C188.433 323.463 191.251 328.63 193.13 337.554C194.539 343.895 194.774 352.114 194.069 355.637C193.13 359.394 191.016 365.266 189.137 369.258C187.259 373.015 181.857 379.826 177.16 383.818L168.471 391.568C324.408 391.568 357.522 390.864 357.522 389.22C357.522 387.811 355.408 385.932 352.825 384.523C350.241 383.114 345.779 378.182 342.961 373.25C340.143 368.553 337.09 360.334 336.151 355.167C335.446 350.001 335.681 341.076 337.09 335.205C338.734 327.925 342.491 321.584 349.067 315.009C356.347 307.728 361.749 304.675 371.612 302.562C381.476 300.213 386.877 300.213 394.627 302.092C400.733 303.736 408.248 308.433 414.589 314.539C422.104 321.819 425.627 327.925 427.74 336.38C429.854 344.834 430.089 350.705 428.21 357.516C427.036 362.682 422.574 371.372 418.581 376.773C414.824 382.409 410.597 386.871 409.188 386.871C408.013 386.871 406.839 387.811 406.839 389.22C406.839 390.629 427.975 391.568 465.55 391.568H524.262C525.436 335.44 525.671 333.796 530.838 331.683L536.004 329.334C536.004 180.912 535.3 137.935 534.36 137.7C533.186 137.7 524.027 137.231 513.694 136.996C503.361 136.761 492.558 135.117 489.74 133.708C486.687 132.064 484.338 129.246 484.338 127.367C484.338 125.488 483.399 123.844 481.99 123.844C480.581 123.844 479.641 104.352 479.641 69.8299V15.8154L493.262 0.550419C582.504 -0.623808 595.185 0.080728 600.821 2.66403ZM395.332 150.147C396.976 153.2 404.725 173.397 412.71 195.472L427.271 235.396C450.52 241.737 459.444 245.729 462.028 248.312C465.785 252.305 467.194 258.411 469.073 280.956C470.717 299.274 472.596 310.077 474.944 312.895C477.528 315.948 478.467 322.759 478.467 335.675C478.467 352.114 477.762 354.932 473.3 358.925C469.308 362.213 464.846 363.152 455.922 362.682C449.346 362.447 443.24 361.038 442.066 359.864C441.127 358.455 439.717 351.175 439.248 343.425C438.543 335.675 436.43 326.046 434.316 322.289C432.437 318.296 427.271 311.721 422.809 307.259C418.581 303.031 412.006 297.865 408.013 295.751C404.256 293.872 394.627 291.759 386.877 291.054C376.544 290.115 369.733 291.054 361.279 294.342C354.469 296.925 346.249 302.797 340.847 308.668C335.681 314.304 330.514 321.584 329.105 325.107C327.461 328.864 325.817 338.493 324.878 346.948L323.469 362.213H206.046C203.933 336.614 201.584 326.046 199.705 322.289C197.592 318.296 191.251 310.781 185.145 305.145C179.274 299.744 170.35 294.342 165.653 292.933C160.721 291.759 151.562 290.585 144.986 290.585C138.645 290.585 129.017 292.698 123.85 295.047C118.684 297.16 110.229 303.971 105.063 309.842C99.8959 315.478 94.2596 324.402 92.8506 329.569C91.2067 334.501 89.7976 343.66 89.7976 349.766C89.7976 357.75 88.6234 361.508 86.2749 362.213C84.3961 362.917 78.7599 363.387 74.0629 363.387C68.6615 363.622 62.5555 361.743 58.798 358.69C52.4572 354.228 52.2223 353.054 52.2223 334.501C52.4572 320.88 53.3966 314.539 55.745 312.895C57.8586 311.251 59.9722 301.153 61.6162 283.539C63.2601 268.744 65.3737 254.653 66.5479 252.305C67.7221 250.191 70.5403 247.373 72.8887 246.199C75.0023 245.025 93.3203 242.206 113.282 240.093C133.244 237.979 149.683 235.866 149.918 235.631C149.918 235.631 159.782 221.54 171.994 204.866C183.971 187.957 198.061 168.465 203.228 161.42C208.629 154.374 213.796 147.799 215.205 146.859C216.614 145.92 257.008 144.98 305.151 144.98H392.514L395.332 150.147Z" fill="#353535"/>
<path d="M604.579 68.6557C604.814 18.8684 604.579 15.8154 600.352 13.7018C597.768 12.2928 575.223 11.1185 545.868 11.1185C496.785 11.1185 496.08 11.1185 492.558 16.52C489.74 20.7472 489.035 30.6107 489.035 68.6557C489.035 106.701 489.74 116.564 492.558 121.026C496.08 126.193 496.785 126.193 545.398 126.193C573.579 126.193 596.829 125.253 599.412 123.844C603.874 121.496 604.109 118.913 604.579 68.6557Z" fill="white"/>
<path d="M385.233 198.525C379.832 183.965 374.43 170.579 373.256 169.17C371.847 167.056 362.688 166.117 343.196 166.117C326.757 166.117 315.014 167.056 314.545 168.465C314.31 169.639 314.31 185.609 315.249 236.57H350.476C369.733 236.57 387.817 235.631 390.4 234.222C392.983 232.813 395.097 230.229 395.097 228.351C395.097 226.472 390.635 212.851 385.233 198.525Z" fill="white"/>
<path d="M294.113 236.57V201.343V166.117H264.758C239.629 166.117 234.932 166.821 231.879 170.344C230 172.457 220.607 185.374 210.743 198.995C201.114 212.616 193.13 225.533 193.13 227.881C193.13 229.995 195.243 232.813 197.827 234.222C200.41 235.631 222.485 236.57 294.113 236.57Z" fill="white"/>
<path d="M400.498 329.569C398.619 327.221 394.862 324.402 392.044 323.228C389.226 322.289 384.764 321.35 382.18 321.115C379.597 321.115 373.726 323.463 369.264 326.516C364.332 329.804 360.105 334.971 358.461 339.902C356.817 345.069 356.582 350.705 357.756 355.167C358.931 359.16 361.749 364.091 364.097 366.44C366.211 368.788 372.786 371.372 378.658 372.076C387.112 373.25 390.635 372.546 396.741 368.553C401.907 365.031 405.195 360.569 406.604 354.698C408.013 348.826 408.013 343.66 406.604 339.902C405.195 336.614 402.612 332.152 400.498 329.569Z" fill="white"/>
<path d="M168.236 333.092C166.122 330.274 161.191 326.281 156.963 324.402C152.971 322.759 147.1 321.819 143.812 322.524C140.524 323.228 135.358 325.577 132.07 327.925C128.782 330.274 125.024 335.675 123.615 340.137C121.971 345.069 121.737 350.705 122.911 355.167C124.085 359.16 127.608 364.561 130.896 367.614C135.123 371.372 139.585 372.781 147.335 372.781C156.024 372.781 159.312 371.372 164.948 365.735C170.584 360.099 171.994 356.576 171.994 348.826C171.994 343.19 170.35 336.145 168.236 333.092Z" fill="white"/>
<path d="M597.534 68.8904C598.003 28.7318 597.534 20.747 594.716 19.8076H594.481C592.837 19.1031 574.284 18.3986 553.618 18.3986C532.951 18.3986 512.05 19.1031 498.194 21.6864L499.603 117.973L543.05 118.678C567.004 118.912 588.844 118.678 591.663 117.973C597.062 116.799 597.064 116.564 597.533 68.9517L597.534 68.8904Z" fill="#353535"/>
<path d="M398.854 344.599C398.15 340.607 395.332 335.91 392.279 334.031H392.514C389.461 332.152 384.764 330.508 381.945 330.508C378.892 330.508 373.961 333.092 370.673 336.379C367.385 339.667 364.802 343.894 364.802 345.773C364.802 347.652 366.211 351.879 367.855 355.167C369.264 358.455 373.256 362.212 376.544 363.622C380.536 365.265 384.529 365.265 388.991 363.387C392.514 362.212 396.271 358.925 397.68 356.341C399.089 353.758 399.559 348.357 398.854 344.599Z" fill="#353535"/>
<path d="M164.948 346.947C164.713 344.129 162.13 339.432 159.077 336.379C156.024 333.092 150.623 330.508 147.335 330.508C144.047 330.508 138.88 333.092 135.592 336.379C132.305 339.667 129.721 344.364 129.721 346.947C129.721 349.531 130.661 353.523 131.835 355.637C132.774 357.985 136.767 361.273 140.524 362.917C146.161 365.735 148.509 365.5 154.38 362.682C158.138 360.803 162.13 357.516 163.069 355.402C164.244 353.288 164.948 349.531 164.948 346.947Z" fill="#353535"/>
<path d="M523.557 97.5416C523.088 95.8977 522.618 82.0418 522.383 67.0117L521.913 39.2999H540.936C557.845 39.2999 560.193 39.7696 565.595 45.1711C569.587 49.1634 571.466 53.6255 571.466 58.7921C571.466 62.7845 569.587 68.6556 567.239 71.7086C564.186 75.701 559.958 77.5797 537.413 80.3979L536.944 90.4963C536.239 99.4204 535.534 100.36 530.368 100.36C527.08 100.36 524.027 98.9507 523.557 97.5416Z" fill="white"/>
<path d="M557.61 60.9057C557.845 57.1482 556.905 53.3907 555.966 52.4513C554.792 51.5119 549.625 51.0422 544.224 51.5119C536.239 52.2164 534.83 53.1558 534.125 58.0876C533.656 61.3754 534.83 64.6632 536.474 65.6026C538.118 66.542 543.519 67.4814 548.216 67.4814C556.436 67.4814 557.14 66.7769 557.61 60.9057Z" fill="#353535"/>
</svg>
