<?xml version="1.0" encoding="UTF-8"?>
<svg version="1.1" xmlns="http://www.w3.org/2000/svg" width="1340" height="901">
<path d="M0 0 C3.55201485 -0.00598491 7.10402951 -0.01207146 10.65604401 -0.01826382 C11.53843178 -0.0197968 12.42081955 -0.02132978 13.32994634 -0.02290922 C27.7442056 -0.04883453 42.15818053 -0.10598997 56.57229227 -0.17472912 C71.45712945 -0.24511965 86.34181763 -0.2854121 101.22681856 -0.29674953 C109.55155074 -0.30389734 117.87577562 -0.3245609 126.20034027 -0.37977695 C133.25347795 -0.42654533 140.30603042 -0.44653989 147.35931784 -0.43089546 C150.95355723 -0.42377454 154.54654055 -0.42971752 158.14058304 -0.47047329 C162.03209849 -0.51425886 165.92191751 -0.49631213 169.81363678 -0.4721365 C170.95122547 -0.49475711 172.08881415 -0.51737772 173.26087523 -0.54068381 C180.70867256 -0.42233032 180.70867256 -0.42233032 183.4293108 2.22490036 C184.73669521 4.27350217 185.72315965 6.25503988 186.65311432 8.49662876 C187.22674713 9.59942173 187.80037994 10.7022147 188.39139557 11.83842564 C193.30357752 22.37584822 197.53052179 33.12916537 201.65311432 43.99662876 C202.03139374 44.98872349 202.40967316 45.98081821 202.79941559 47.00297642 C212.9838734 73.72202196 222.72147223 100.60692164 232.47234821 127.48637676 C235.61209724 136.14118944 238.75760939 144.79390777 241.90341949 153.4465189 C244.11573908 159.53163624 246.32714562 165.61707995 248.53543854 171.70366001 C249.32075444 173.86642156 250.10607327 176.02918204 250.89139557 178.19194126 C251.24547989 179.16906071 251.59956421 180.14618015 251.96437836 181.15290928 C252.29132187 182.05282597 252.61826538 182.95274265 252.95511627 183.87992954 C253.37734215 185.04384724 253.37734215 185.04384724 253.80809784 186.23127842 C254.41889495 187.86872513 255.07530274 189.48940141 255.7592392 191.09767246 C256.65311432 193.49662876 256.65311432 193.49662876 256.65311432 196.49662876 C257.4944693 196.64031895 257.4944693 196.64031895 258.35282135 196.78691196 C265.93190496 198.18241853 273.18549561 200.36693727 280.52811432 202.68412876 C281.16218201 202.88326878 281.79624969 203.08240879 282.44953156 203.28758335 C330.55640585 218.40466433 330.55640585 218.40466433 337.65311432 230.49662876 C341.12592957 238.5206598 342.87092545 246.85448425 344.13748932 255.47709751 C344.26410446 256.33170567 344.3907196 257.18631382 344.52117157 258.06681919 C345.95115537 268.07799587 346.86564223 278.13699733 347.78742218 288.20524693 C349.08382105 329.12630149 349.08382105 329.12630149 362.41727448 366.49589634 C366.72132873 373.46383878 367.28851611 382.08451797 367.84061432 390.05912876 C367.92029449 391.13614048 367.99997467 392.2131522 368.0820694 393.32280064 C368.87419783 405.05072586 368.91338358 416.74967291 368.65311432 428.49662876 C368.63909576 429.33258579 368.62507721 430.16854282 368.61063385 431.02983189 C368.3829743 442.36117503 367.90706804 455.46853834 359.47733307 464.00444126 C348.92814057 472.63354519 338.94582193 473.87179933 325.65311432 473.80912876 C324.46500153 473.80566441 323.27688873 473.80220005 322.05277252 473.79863071 C297.62419744 473.49868009 297.62419744 473.49868009 288.65311432 467.49662876 C285.89205596 462.58606225 284.94162995 457.71566728 284.15311432 452.18412876 C284.02984772 451.37508091 283.90658112 450.56603306 283.77957916 449.73246861 C282.90749866 443.81628331 282.25408063 437.88646666 281.6301651 431.939744 C277.64746409 394.40237266 263.84708173 366.71898251 234.65311432 342.49662876 C207.75294282 320.88117047 173.22588327 315.53070198 139.23612213 318.72367954 C134.93053024 319.28957444 130.81799501 320.28636343 126.65311432 321.49662876 C125.45428619 321.8253397 124.25545807 322.15405064 123.02030182 322.49272251 C89.97660454 332.4610195 62.35366485 358.49582866 46.15311432 388.55912876 C36.30242182 409.98870542 35.57577881 436.01866736 33.60404205 459.22514439 C33.49261871 460.52129673 33.38119537 461.81744907 33.26639557 463.15287876 C33.17140778 464.30594517 33.07641998 465.45901157 32.97855377 466.64701939 C32.65311432 469.49662876 32.65311432 469.49662876 31.65311432 472.49662876 C-52.82688568 472.49662876 -137.30688568 472.49662876 -224.34688568 472.49662876 C-225.66688568 459.29662876 -226.98688568 446.09662876 -228.34688568 432.49662876 C-231.94951434 405.47691383 -234.89850549 386.06771757 -253.34688568 365.49662876 C-254.27011876 364.44980314 -255.19329683 363.40292901 -256.11641693 362.35600376 C-273.23434629 343.12588354 -296.08144409 324.16846051 -322.34688568 320.49662876 C-323.45934662 320.29553501 -324.57180756 320.09444126 -325.71797943 319.88725376 C-358.02785919 314.73993169 -391.44301148 318.06061782 -418.34688568 337.49662876 C-434.00943964 348.96028528 -446.94463505 363.17523895 -457.34688568 379.49662876 C-457.94219086 380.4129105 -457.94219086 380.4129105 -458.5495224 381.34770298 C-471.25523597 401.12366335 -473.47450653 423.59671943 -474.6132431 446.54570103 C-475.63121874 465.73303583 -475.63121874 465.73303583 -480.34688568 471.49662876 C-491.38459662 477.462959 -511.79331958 476.90734187 -523.72969818 474.27787876 C-535.57587472 470.74170666 -547.16505516 464.92186662 -554.34688568 454.49662876 C-557.90346608 447.38346795 -557.50684413 439.64015545 -557.51485443 431.87944126 C-557.51818283 430.74948734 -557.52151123 429.61953342 -557.52494049 428.45533848 C-557.52999662 426.06318155 -557.53234922 423.67101759 -557.53218842 421.27885532 C-557.5343572 417.66903165 -557.55247807 414.0595227 -557.57149506 410.44975376 C-557.66210177 374.07084507 -557.66210177 374.07084507 -549.37032318 362.81303501 C-546.91928444 358.79579198 -545.88316384 355.11531603 -544.84688568 350.55912876 C-544.5317099 349.19437412 -544.5317099 349.19437412 -544.21016693 347.80204868 C-541.30438016 334.52018166 -539.90779218 320.98752116 -538.34688568 307.49662876 C-537.51720384 300.35036747 -536.68552754 293.2043447 -535.84688568 286.05912876 C-535.68811951 284.70630802 -535.68811951 284.70630802 -535.52614594 283.32615757 C-534.26922373 272.66573754 -532.96160583 262.02851278 -531.22188568 251.43412876 C-531.07557709 250.52670933 -530.92926849 249.61928989 -530.77852631 248.6843729 C-528.97249978 238.26460317 -526.14616909 229.51206693 -518.09688568 222.30912876 C-514.21842965 219.64580069 -510.2718984 218.51482301 -505.73628998 217.50151157 C-504.9914696 217.33151772 -504.24664923 217.16152386 -503.47925854 216.98637867 C-494.84176364 215.07663351 -486.12519073 213.81049617 -477.36641693 212.60600376 C-476.03490066 212.41918159 -476.03490066 212.41918159 -474.67648506 212.22858524 C-452.55932793 209.12740477 -430.37362288 206.60499926 -408.1823349 204.10203648 C-399.7548198 203.15055865 -391.3283772 202.18967068 -382.90216255 201.22675419 C-380.01061953 200.89744827 -377.11869484 200.57168692 -374.2266922 200.24644566 C-370.00192112 199.76933753 -365.77968993 199.27429945 -361.55907059 198.76178074 C-360.13120311 198.59063687 -358.70265737 198.42501873 -357.27337265 198.26614475 C-355.45322215 198.06261892 -353.63584511 197.83470578 -351.81880951 197.6050272 C-350.84575363 197.4888303 -349.87269775 197.3726334 -348.87015533 197.25291538 C-343.58206441 195.66794312 -341.17210907 190.93547877 -338.34688568 186.49662876 C-337.52800112 185.29765562 -336.70345999 184.10253236 -335.87422943 182.91069126 C-334.0099318 180.22812107 -332.16333119 177.53459341 -330.32735443 174.83256626 C-325.69244827 168.04865117 -320.83430038 161.4242639 -316.00411224 154.77885532 C-313.27731755 151.02368785 -310.5625878 147.25982182 -307.84688568 143.49662876 C-304.58828483 138.98264519 -301.32821895 134.46975193 -298.06172943 129.96147251 C-292.78108146 122.66914913 -287.52737228 115.36052756 -282.34688568 107.99662876 C-276.62896578 99.86878542 -270.81864473 91.80996832 -264.98799896 83.76274204 C-262.81233692 80.75850296 -260.64069549 77.75137103 -258.46944427 74.74394321 C-257.38804751 73.2461615 -256.30634191 71.74860272 -255.22432709 70.25126743 C-252.49891004 66.47953614 -249.77703967 62.70533134 -247.06172943 58.92631626 C-207.76642867 4.28000988 -207.76642867 4.28000988 -201.11006927 3.10014439 C-200.20595306 3.03504673 -199.30183685 2.96994907 -198.37032318 2.90287876 C-197.37613373 2.8294022 -196.38194427 2.75592564 -195.35762787 2.68022251 C-130.4248977 -1.27934715 -65.02699311 0.10763077 0 0 Z " fill="#353535" transform="translate(669.3468856811523,315.5033712387085)"/>
<path d="M0 0 C14.73645704 -0.07420778 29.47228453 -0.08145628 44.20889485 -0.06900764 C49.97998058 -0.06460157 55.75104482 -0.06779453 61.52212924 -0.07262719 C67.92299825 -0.07776241 74.32385575 -0.07715874 80.72472572 -0.07424545 C83.38237795 -0.07315794 86.03999802 -0.07435774 88.69765282 -0.07672501 C159.12175982 -0.12591342 159.12175982 -0.12591342 181.33837891 20.89550781 C193.31063458 33.26981685 191.53117056 56.18464765 191.97094727 72.24072266 C191.99157663 72.96531701 192.012206 73.68991136 192.0334605 74.43646312 C192.84873442 103.44726955 192.84347181 132.47774455 192.92875767 161.49788857 C192.96223768 172.68194637 193.02255188 183.86521476 193.11626869 195.04893363 C193.18055273 202.9919179 193.21428005 210.93468515 193.2255072 218.87791955 C193.23304052 223.59532144 193.25401166 228.31174569 193.30853462 233.02885818 C193.35898393 237.44060108 193.37157494 241.85084684 193.35528374 246.26283264 C193.35588623 247.87534999 193.37010536 249.48793099 193.39923096 251.10018539 C193.60736321 263.25706506 193.60736321 263.25706506 190.70774651 267.70432663 C188.71783257 269.70178522 186.67070451 271.35363363 184.43212891 273.05957031 C183.27632096 274.34502324 182.14656336 275.65490273 181.05712891 276.99707031 C169.85331803 289.96184463 158.53230893 297.29788889 141.43212891 299.05957031 C138.88558579 299.19902742 136.33692006 299.30327574 133.78759766 299.37597656 C133.06067215 299.39675766 132.33374664 299.41753876 131.58479309 299.43894958 C130.03762023 299.48200391 128.4903909 299.52307003 126.94311523 299.56225586 C124.71851802 299.61952457 122.49433292 299.68564752 120.27001953 299.75292969 C108.92312581 300.06794727 97.58042822 300.08227474 86.23022461 300.07104492 C84.59520726 300.07012192 82.96018986 300.06928461 81.32517242 300.06853485 C77.36082331 300.06653334 73.39647668 300.06337633 69.43212891 300.05957031 C69.66509777 344.45097 69.90241065 388.84234465 70.14542812 433.23369052 C70.17421281 438.49238205 70.20296209 443.75107378 70.23168945 449.00976562 C70.23740837 450.05653408 70.24312729 451.10330254 70.24901951 452.18179126 C70.34114279 469.05907728 70.43040719 485.93637724 70.51858693 502.81368427 C70.60935034 520.17311599 70.70325125 537.53252877 70.7999745 554.89192832 C70.85940592 565.57564049 70.91648367 576.25935963 70.97040332 586.94310106 C71.00777684 594.3015706 71.04823876 601.66001941 71.09096711 609.01845978 C71.1154135 613.24332053 71.13865504 617.4681771 71.15817261 621.69306374 C71.23582493 638.30286075 71.41530662 654.90219752 71.89601135 671.50576782 C71.91568818 672.20267713 71.93536501 672.89958643 71.9556381 673.61761419 C71.74893974 696.38552363 71.74893974 696.38552363 77.43212891 718.05957031 C79.27393511 719.6288847 79.27393511 719.6288847 81.43212891 720.24707031 C85.41424851 721.65740434 86.57735338 723.25227436 88.43212891 727.05957031 C89.08523653 729.96670036 89.3560255 732.87576654 89.60742188 735.84179688 C89.68727262 736.71601414 89.76712337 737.5902314 89.84939384 738.49094009 C90.75996041 749.49713291 90.68152701 760.50887236 90.62744141 771.54394531 C90.62369983 773.82464472 90.62085829 776.10534576 90.61886597 778.38604736 C90.61131951 784.31732821 90.591751 790.24850724 90.56945801 796.17974854 C90.54880313 802.26076888 90.53982274 808.34180607 90.52978516 814.42285156 C90.50849438 826.30180194 90.47447054 838.18067758 90.43212891 850.05957031 C91.32732239 850.05512909 92.22251587 850.05068787 93.14483643 850.04611206 C101.673958 850.0056644 110.20304633 849.97540045 118.73224258 849.95594597 C123.1148317 849.94560733 127.49734012 849.93163503 131.87988281 849.90869141 C165.50514333 849.73769558 165.50514333 849.73769558 177.41650391 850.87988281 C178.1632135 850.94948212 178.9099231 851.01908142 179.67926025 851.09078979 C185.20652564 851.74308749 190.74224522 852.91905098 194.30712891 857.43457031 C196.98120328 863.67407719 196.615564 870.07655717 196.61962891 876.74707031 C196.631875 877.78541016 196.64412109 878.82375 196.65673828 879.89355469 C196.65963867 881.4355957 196.65963867 881.4355957 196.66259766 883.00878906 C196.66670654 883.93006592 196.67081543 884.85134277 196.67504883 885.80053711 C196.45720151 888.72319425 196.0052057 891.39828831 195.41694641 894.26325989 C195.23351338 895.16197721 195.05008036 896.06069452 194.86108875 896.9866457 C194.719532 897.67071082 194.57797525 898.35477594 194.43212891 899.05957031 C86.02021649 899.69263189 -22.39041331 900.14947706 -144.92382812 900.18896484 C-145.59523807 900.18914684 -146.26664801 900.18932883 -146.9584037 900.18951634 C-182.18440432 900.19905747 -217.41040295 900.19917313 -252.63640437 900.19512081 C-274.27796729 900.19263513 -295.91952936 900.19225083 -317.56109238 900.19338608 C-319.08906078 900.19346356 -320.61702918 900.19354071 -322.14499758 900.19361755 C-328.29088377 900.19392824 -334.43676995 900.19424693 -340.58265613 900.19457731 C-357.71794524 900.19549124 -374.85323435 900.19606403 -391.98852348 900.19636345 C-392.76655973 900.19637709 -393.54459598 900.19639074 -394.34620909 900.1964048 C-418.88489517 900.19680996 -443.42358094 900.19570775 -467.96226692 900.19351387 C-468.75066089 900.19344362 -469.53905485 900.19337337 -470.35133955 900.19330099 C-483.13719211 900.19215742 -495.92304466 900.19093735 -508.70889722 900.18971082 C-559.86110813 900.18480922 -611.01331643 900.18512773 -662.16552734 900.18994141 C-675.18704287 900.19116296 -688.2085584 900.19237412 -701.23007393 900.19351387 C-702.0322724 900.19358432 -702.83447087 900.19365477 -703.66097838 900.19372735 C-728.36712973 900.19588201 -753.07328086 900.1967983 -777.7794323 900.19636345 C-778.94143557 900.19634307 -778.94143557 900.19634307 -780.12691366 900.19632228 C-797.12222983 900.19600997 -814.11754599 900.19537659 -831.11286214 900.19445295 C-837.18797623 900.19412394 -843.26309033 900.19381085 -849.33820443 900.19350224 C-850.84864187 900.19342485 -852.3590793 900.19334612 -853.86951674 900.19326604 C-877.84314111 900.19199832 -901.81676434 900.19341221 -925.79038856 900.19611618 C-950.46924621 900.19886961 -975.14810122 900.19786769 -999.82695849 900.19258489 C-1014.02718285 900.18964626 -1028.22740094 900.18946087 -1042.42762514 900.19323106 C-1051.90082704 900.19546929 -1061.37402391 900.19408555 -1070.84722507 900.18972629 C-1076.24427435 900.18734381 -1081.64131112 900.18654216 -1087.03836001 900.19013228 C-1091.94694096 900.19336454 -1096.85549832 900.1919873 -1101.76407754 900.18695161 C-1103.52701082 900.18594562 -1105.28994605 900.18660748 -1107.05287777 900.18915755 C-1135.15032389 900.22691432 -1135.15032389 900.22691432 -1140.56787109 896.05957031 C-1143.54308069 890.52211537 -1143.9786268 886.05931947 -1143.86083984 879.84472656 C-1143.856595 878.98898544 -1143.85235016 878.13324432 -1143.84797668 877.25157166 C-1143.83129898 874.54140611 -1143.79366814 871.83200783 -1143.75537109 869.12207031 C-1143.74031011 867.27507591 -1143.72662419 865.42806975 -1143.71435547 863.58105469 C-1143.68143135 859.07360147 -1143.62972579 854.56671559 -1143.56787109 850.05957031 C-1142.74503207 850.0532224 -1142.74503207 850.0532224 -1141.90557003 850.04674625 C-1058.54254173 849.41065777 -1058.54254173 849.41065777 -975.18120193 848.58875656 C-972.54812751 848.56003667 -969.91504318 848.53252874 -967.2819519 848.50540161 C-950.34489105 848.3295685 -933.41315719 848.08416499 -916.48193359 847.59472656 C-915.80907255 847.57618622 -915.13621151 847.55764587 -914.44296074 847.5385437 C-903.0912838 847.21952548 -891.84494099 846.38100171 -880.56787109 845.05957031 C-881.94526951 840.131735 -884.21916484 838.6690086 -888.50537109 836.05957031 C-907.16119671 823.91098793 -919.66097353 800.21806229 -924.43432617 779 C-927.77376806 760.96887423 -927.63703231 739.37453026 -921.56787109 722.05957031 C-921.19404297 720.98578125 -920.82021484 719.91199219 -920.43505859 718.80566406 C-915.80345048 706.79722315 -908.92737389 696.75479259 -900.56787109 687.05957031 C-900.00455078 686.35058594 -899.44123047 685.64160156 -898.86083984 684.91113281 C-885.62130864 668.61136933 -864.28851856 659.62714097 -844.56787109 654.05957031 C-843.68357422 653.79402344 -842.79927734 653.52847656 -841.88818359 653.25488281 C-819.56362817 647.61580826 -795.06215625 654.91254696 -775.52490234 665.74707031 C-748.39998652 682.27452255 -731.35000726 705.581431 -723.81005859 736.12988281 C-718.89884934 761.51599264 -723.27606939 787.38465942 -737.56787109 809.05957031 C-746.59277746 822.33246374 -758.21086143 833.86437012 -770.56787109 844.05957031 C-771.60589786 844.92357329 -772.64354798 845.78802889 -773.6809082 846.65283203 C-774.63360596 847.44705566 -775.58630371 848.2412793 -776.56787109 849.05957031 C-637.81309325 849.26386993 -637.81309325 849.26386993 -499.06041002 848.637815 C-495.78632219 848.61194374 -492.51222441 848.5873763 -489.23812866 848.56253052 C-465.25155363 848.37692086 -441.26837154 848.11344273 -417.28662109 847.58691406 C-416.40688126 847.56822329 -415.52714142 847.54953251 -414.6207428 847.53027534 C-405.51961112 847.33264241 -396.42749804 847.04687512 -387.33544922 846.58911133 C-386.57210014 846.55187675 -385.80875107 846.51464216 -385.0222702 846.47627926 C-380.16547886 846.2151228 -375.38804694 845.711523 -370.56787109 845.05957031 C-371.9381173 841.827727 -373.31822421 840.23412702 -376.19287109 838.24707031 C-397.74395858 822.63709343 -411.31087463 797.95149831 -416.15771484 771.88769531 C-419.01038557 745.26276849 -415.71264098 717.59740219 -398.75537109 695.99707031 C-397.37331447 694.33965137 -395.97719386 692.69386753 -394.56787109 691.05957031 C-393.85501953 690.22425781 -393.14216797 689.38894531 -392.40771484 688.52832031 C-373.04561784 666.40020945 -348.53997998 655.31609767 -319.40380859 652.78466797 C-290.62087612 651.19107199 -267.99746239 661.17248745 -246.75976562 680.09204102 C-227.0690184 698.14148004 -214.48044976 720.93490256 -212.34667969 747.84960938 C-210.97308379 781.22506714 -226.33531436 810.90079579 -248.578125 835.19775391 C-252.23385285 839.00301637 -255.66106101 841.20794386 -260.56787109 843.05957031 C-260.56787109 843.71957031 -260.56787109 844.37957031 -260.56787109 845.05957031 C-252.46607605 846.32394136 -244.43636456 847.21914505 -236.24520874 847.59205627 C-235.37952943 847.63316515 -234.51385012 847.67427402 -233.62193811 847.71662861 C-224.41121597 848.13826227 -215.19816587 848.39457602 -205.98046875 848.60229492 C-205.08869407 848.62304577 -204.19691939 848.64379661 -203.27812123 848.66517627 C-183.44318357 849.12156566 -163.60927857 849.27387488 -143.76980543 849.36289334 C-138.94935574 849.38538918 -134.12893127 849.41245411 -129.3085022 849.43894958 C-120.25759373 849.48804678 -111.20667065 849.53327827 -102.15573466 849.57697195 C-91.81878581 849.62707332 -81.48186231 849.68171101 -71.14493823 849.73665154 C-49.95260632 849.84919076 -28.76025001 849.95628738 -7.56787109 850.05957031 C-7.56963285 848.92453536 -7.57139462 847.78950041 -7.57320976 846.62007046 C-7.57463535 845.09871868 -7.5760171 843.57736686 -7.57736206 842.05601501 C-7.57863444 841.31174932 -7.57990683 840.56748363 -7.58121777 839.80066442 C-7.5862368 832.19697008 -7.4111256 824.60167468 -7.20068359 817.00097656 C-7.16061757 815.51814315 -7.12056877 814.03530928 -7.08053589 812.55247498 C-6.99654985 809.46762985 -6.91049001 806.38285018 -6.82324219 803.2980957 C-6.73587008 800.19695217 -6.65260234 797.09574355 -6.57324219 793.99438477 C-6.18400735 778.82507086 -5.7557505 763.66389269 -4.68505859 748.52441406 C-4.61924591 747.51335098 -4.55343323 746.5022879 -4.48562622 745.46058655 C-3.03021906 726.92103329 -3.03021906 726.92103329 3.43212891 721.05957031 C6.59619141 719.25878906 6.59619141 719.25878906 10.05712891 717.74707031 C11.20439453 717.2353125 12.35166016 716.72355469 13.53369141 716.19628906 C16.43212891 715.05957031 16.43212891 715.05957031 18.43212891 715.05957031 C18.42182144 713.7725975 18.41151398 712.48562469 18.40089417 711.15965271 C18.26681046 694.35528061 18.13800884 677.55086959 18.01156998 660.7464385 C17.99468577 658.50462022 17.97773989 656.2628024 17.96078491 654.02098465 C17.64585398 612.31878505 17.38834632 570.61655009 17.19375873 528.91360927 C17.17821932 525.5901063 17.16254301 522.266604 17.14682198 518.94310188 C17.05321575 499.14623877 16.95977263 479.34937561 16.87796021 459.55245972 C16.67351688 402.22749404 16.67351688 402.22749404 15.96337891 344.90722656 C15.93516808 343.22718946 15.93516808 343.22718946 15.90638733 341.5132122 C15.6724225 328.01133306 15.19486209 314.54206604 14.43212891 301.05957031 C10.68594254 300.38173371 7.07112186 299.91790728 3.26660156 299.81005859 C2.28341949 299.7797757 1.30023743 299.7494928 0.28726196 299.71829224 C-0.76579132 299.68911713 -1.8188446 299.65994202 -2.90380859 299.62988281 C-5.19028027 299.55607619 -7.47673819 299.48184254 -9.76318359 299.40722656 C-13.32296838 299.29516465 -16.88274949 299.18627298 -20.44287109 299.08544922 C-78.76541528 297.40243661 -78.76541528 297.40243661 -90.12255859 285.84863281 C-93.08116878 282.18635318 -94.38144944 278.77030288 -95.56787109 274.24707031 C-95.89787109 273.19519531 -96.22787109 272.14332031 -96.56787109 271.05957031 C-97.55787109 270.72957031 -98.54787109 270.39957031 -99.56787109 270.05957031 C-105.80004279 254.5117134 -103.69917798 233.20267538 -104.06787109 216.52832031 C-104.0873839 215.65586922 -104.10689671 214.78341812 -104.12700081 213.88452911 C-104.29339207 206.27655243 -104.43399881 198.66818179 -104.56787109 191.05957031 C-104.58584629 190.04335822 -104.58584629 190.04335822 -104.60418463 189.00661659 C-104.96880764 168.30465174 -105.23684458 147.6033713 -105.37525082 126.89860916 C-105.43697792 117.90035732 -105.52627141 108.90394683 -105.67895508 99.90673828 C-105.81436466 91.9245267 -105.89979537 83.94359266 -105.92578036 75.96024728 C-105.9410087 71.77430466 -105.97942501 67.59183929 -106.07865715 63.40697479 C-106.72714916 34.93499354 -106.72714916 34.93499354 -99.64708042 26.58693314 C-97.28712465 24.26024711 -94.84090083 22.20031211 -92.15992928 20.2546463 C-90.03895493 18.66254022 -88.42610081 16.7971054 -86.75537109 14.74707031 C-86.21502731 14.15612579 -85.67468353 13.56518127 -85.1179657 12.95632935 C-83.46321596 11.04678535 -83.46321596 11.04678535 -82.17951965 8.55123901 C-79.4839576 4.4082064 -77.0389373 1.65138567 -72.19222641 0.49060822 C-64.56600193 -0.44826205 -56.87137973 -0.17561954 -49.20458984 -0.05761719 C-46.62277882 -0.05446578 -44.0409583 -0.05602471 -41.45915222 -0.0619812 C-35.97950369 -0.0692513 -30.50086393 -0.04359406 -25.02142334 0.00305176 C-16.68037194 0.0717869 -8.34110416 0.04520049 0 0 Z " fill="#353535" transform="translate(1143.56787109375,0.9404296875)"/>
<path d="M0 0 C1.44795821 -0.00300406 2.89591564 -0.00640937 4.34387207 -0.01017761 C8.22925119 -0.01890344 12.11460821 -0.02135107 15.99999619 -0.0219934 C18.44731618 -0.0227114 20.89463082 -0.02485981 23.34194946 -0.02749062 C31.93760525 -0.03671224 40.53324568 -0.04083025 49.12890625 -0.04003906 C57.04479901 -0.03944183 64.96062284 -0.04993193 72.87649822 -0.06578273 C79.74605714 -0.07903034 86.61559406 -0.08421576 93.4851656 -0.08358365 C97.55486294 -0.08333329 101.62449914 -0.08591884 105.69418335 -0.0967617 C181.65043027 -0.28509338 181.65043027 -0.28509338 191.73828125 8.14526367 C199.36138447 21.08937223 197.01737711 39.87989319 196.96875 54.36010742 C196.96797647 56.71783943 196.96798968 59.07557181 196.96873474 61.43330383 C196.96779756 67.69380365 196.95369958 73.95420373 196.93592072 80.2146759 C196.92575797 84.09164433 196.91904696 87.96860342 196.91351318 91.84558105 C196.8697377 122.02955892 196.77975495 152.21384062 196.36328125 182.39526367 C196.34808441 183.65539276 196.33288757 184.91552185 196.31723022 186.21383667 C196.16668499 197.97583157 195.84123269 209.67753217 194.8125 221.39916992 C194.73484406 222.2902948 194.65718811 223.18141968 194.57717896 224.09954834 C193.09773789 239.23555174 193.09773789 239.23555174 187.8125 243.81323242 C183.13284367 245.84088529 178.40571921 246.22379256 173.36328125 246.77026367 C172.38617187 246.89143555 171.4090625 247.01260742 170.40234375 247.13745117 C147.92872536 249.72191729 125.17826254 249.32090453 102.59153938 249.34545231 C99.99137801 249.34842081 97.39122068 249.35253129 94.7910614 249.35695648 C86.61387996 249.37054391 78.43670816 249.38025946 70.25951624 249.38415837 C60.89276995 249.38865319 51.52616854 249.40630377 42.15946627 249.43515897 C34.85946251 249.45685286 27.55949939 249.46686633 20.25946379 249.46819949 C15.92377797 249.46923965 11.58823 249.47498036 7.25257874 249.4930191 C3.1811065 249.50964043 -0.890126 249.51158814 -4.96162033 249.5028801 C-6.44212366 249.50211787 -7.92264073 249.50634273 -9.4031105 249.51633835 C-21.29637503 249.59184571 -34.45310944 249.65488486 -44.26171875 242.14526367 C-52.74893027 231.06473752 -52.70348705 217.22435833 -53.3671875 203.82104492 C-53.40893789 203.0044018 -53.45068829 202.18775867 -53.49370384 201.34636879 C-54.74544396 176.07728468 -54.60007837 150.76978546 -54.57539928 125.47663605 C-54.57192333 120.69074628 -54.58153783 115.90500096 -54.59790039 111.11914062 C-54.77337967 58.50167045 -54.77337967 58.50167045 -52.9296875 38.00854492 C-52.81321365 36.71345505 -52.69673981 35.41836517 -52.57673645 34.08403015 C-51.33520962 22.29377376 -49.81511022 11.97701923 -40.26171875 4.14526367 C-29.73423636 -2.22994479 -11.84849843 -0.00408794 0 0 Z " fill="#353535" transform="translate(1114.26171875,25.854736328125)"/>
<path d="M0 0 C2.13028865 0.00294674 4.26057875 0.00498329 6.39086914 0.00610352 C14.22153925 0.01651776 22.0521782 0.04444011 29.8828125 0.0703125 C47.4140625 0.1115625 64.9453125 0.1528125 83.0078125 0.1953125 C83.0078125 50.6853125 83.0078125 101.1753125 83.0078125 153.1953125 C63.9709375 153.2365625 44.9340625 153.2778125 25.3203125 153.3203125 C16.52113159 153.34762451 16.52113159 153.34762451 7.54418945 153.37548828 C-120.86236384 153.60296249 -120.86236384 153.60296249 -130.11328125 145.2890625 C-135.76946884 139.00693866 -135.76946884 139.00693866 -136.3125 134.58984375 C-135.87866861 129.99228913 -134.12286922 126.86269798 -131.8671875 122.8828125 C-131.39780762 122.04250488 -130.92842773 121.20219727 -130.44482422 120.33642578 C-118.8756061 100.16563759 -105.29050305 80.8770777 -91.46777344 62.19921875 C-89.35139519 59.32509024 -87.27033766 56.42596434 -85.18701172 53.52783203 C-78.39701804 44.08521144 -71.53674767 34.6944374 -64.59960938 25.359375 C-63.56991188 23.97309939 -62.54236502 22.58522215 -61.51757812 21.1953125 C-48.70086925 3.84123561 -48.70086925 3.84123561 -38.9921875 2.1953125 C-38.14461884 2.02903351 -37.29705017 1.86275452 -36.42379761 1.69143677 C-24.32990236 -0.36889058 -12.23019327 -0.05682046 0 0 Z " fill="#FEFEFE" transform="translate(553.9921875,361.8046875)"/>
<path d="M0 0 C1.08011353 -0.00099701 2.16022705 -0.00199402 3.27307129 -0.00302124 C14.12547971 -0.00188851 24.96328569 0.10433128 35.8046875 0.62109375 C36.58825119 0.65749466 37.37181488 0.69389557 38.17912292 0.73139954 C57.53249696 1.77601848 57.53249696 1.77601848 63.453125 6.12890625 C66.74197661 10.39243408 68.60655692 14.90536603 70.625 19.875 C71.08729004 20.99221436 71.54958008 22.10942871 72.02587891 23.26049805 C82.01835057 47.67949914 91.24987593 72.42370981 100 97.3125 C100.26222351 98.05706451 100.52444702 98.80162903 100.7946167 99.5687561 C102.50220998 104.43014751 104.16898869 109.30411421 105.8125 114.1875 C106.05486389 114.89773315 106.29722778 115.60796631 106.54693604 116.33972168 C107.26977356 118.46973002 107.97503672 120.60482185 108.67578125 122.7421875 C109.2932019 124.60206299 109.2932019 124.60206299 109.9230957 126.49951172 C111.20598282 131.81910896 111.72643038 136.32308203 109.25 141.375 C101.15554855 150.71475168 91.62319515 150.86747235 79.73339844 151.81591797 C77.04622143 151.99111156 74.36046466 152.15599544 71.671875 152.3046875 C70.55700336 152.36785975 70.55700336 152.36785975 69.41960907 152.4323082 C44.96163473 153.76678664 20.44229345 153.41078077 -4.04193115 153.3248291 C-10.62038861 153.30400892 -17.19886253 153.29515977 -23.77734375 153.28515625 C-36.58076971 153.2639963 -49.38412956 153.23048009 -62.1875 153.1875 C-62.7855678 144.77345482 -63.33359356 136.37650145 -63.50390625 127.94140625 C-63.52473267 127.00257599 -63.54555908 126.06374573 -63.5670166 125.09646606 C-63.63318056 121.98105734 -63.69234845 118.86557733 -63.75 115.75 C-63.78176834 114.11727646 -63.78176834 114.11727646 -63.81417847 112.4515686 C-64.48916532 76.70282091 -64.2772561 40.940753 -64.1875 5.1875 C-57.35560663 2.17099541 -51.83988442 1.42417884 -44.4375 1 C-42.47623169 0.88047974 -42.47623169 0.88047974 -40.4753418 0.75854492 C-26.99441414 0.01419206 -13.49774815 0.00330671 0 0 Z " fill="#FEFEFE" transform="translate(745.1875,361.8125)"/>
<path d="M0 0 C1.44795821 -0.00300406 2.89591564 -0.00640937 4.34387207 -0.01017761 C8.22925119 -0.01890344 12.11460821 -0.02135107 15.99999619 -0.0219934 C18.44731618 -0.0227114 20.89463082 -0.02485981 23.34194946 -0.02749062 C31.93760525 -0.03671224 40.53324568 -0.04083025 49.12890625 -0.04003906 C57.04479901 -0.03944183 64.96062284 -0.04993193 72.87649822 -0.06578273 C79.74605714 -0.07903034 86.61559406 -0.08421576 93.4851656 -0.08358365 C97.55486294 -0.08333329 101.62449914 -0.08591884 105.69418335 -0.0967617 C181.65043027 -0.28509338 181.65043027 -0.28509338 191.73828125 8.14526367 C199.36138447 21.08937223 197.01737711 39.87989319 196.96875 54.36010742 C196.96797647 56.71783943 196.96798968 59.07557181 196.96873474 61.43330383 C196.96779756 67.69380365 196.95369958 73.95420373 196.93592072 80.2146759 C196.92575797 84.09164433 196.91904696 87.96860342 196.91351318 91.84558105 C196.8697377 122.02955892 196.77975495 152.21384062 196.36328125 182.39526367 C196.34808441 183.65539276 196.33288757 184.91552185 196.31723022 186.21383667 C196.16668499 197.97583157 195.84123269 209.67753217 194.8125 221.39916992 C194.73484406 222.2902948 194.65718811 223.18141968 194.57717896 224.09954834 C193.09773789 239.23555174 193.09773789 239.23555174 187.8125 243.81323242 C183.13284367 245.84088529 178.40571921 246.22379256 173.36328125 246.77026367 C172.38617187 246.89143555 171.4090625 247.01260742 170.40234375 247.13745117 C147.92872536 249.72191729 125.17826254 249.32090453 102.59153938 249.34545231 C99.99137801 249.34842081 97.39122068 249.35253129 94.7910614 249.35695648 C86.61387996 249.37054391 78.43670816 249.38025946 70.25951624 249.38415837 C60.89276995 249.38865319 51.52616854 249.40630377 42.15946627 249.43515897 C34.85946251 249.45685286 27.55949939 249.46686633 20.25946379 249.46819949 C15.92377797 249.46923965 11.58823 249.47498036 7.25257874 249.4930191 C3.1811065 249.50964043 -0.890126 249.51158814 -4.96162033 249.5028801 C-6.44212366 249.50211787 -7.92264073 249.50634273 -9.4031105 249.51633835 C-21.29637503 249.59184571 -34.45310944 249.65488486 -44.26171875 242.14526367 C-52.74893027 231.06473752 -52.70348705 217.22435833 -53.3671875 203.82104492 C-53.40893789 203.0044018 -53.45068829 202.18775867 -53.49370384 201.34636879 C-54.74544396 176.07728468 -54.60007837 150.76978546 -54.57539928 125.47663605 C-54.57192333 120.69074628 -54.58153783 115.90500096 -54.59790039 111.11914062 C-54.77337967 58.50167045 -54.77337967 58.50167045 -52.9296875 38.00854492 C-52.81321365 36.71345505 -52.69673981 35.41836517 -52.57673645 34.08403015 C-51.33520962 22.29377376 -49.81511022 11.97701923 -40.26171875 4.14526367 C-29.73423636 -2.22994479 -11.84849843 -0.00408794 0 0 Z M-34.26171875 22.14526367 C-34.31830141 36.62413814 -34.17182814 51.08905586 -33.89160156 65.56503296 C-33.47956962 87.07522766 -33.20219317 108.58514657 -33.0078125 130.09838867 C-32.99745028 131.23361528 -32.98708805 132.3688419 -32.97641182 133.53846931 C-32.87171704 145.03397343 -32.77115608 156.52949607 -32.6812067 168.0251255 C-32.64621671 172.40344135 -32.60809551 176.7817268 -32.56939888 181.16001129 C-32.55220234 183.19129521 -32.53639534 185.22259152 -32.52219963 187.25389862 C-32.41709643 202.23413658 -31.93816748 217.18004686 -31.26171875 232.14526367 C7.56566881 233.09276541 46.37477493 233.33361856 85.2113539 233.33037388 C91.48206173 233.33073062 97.75271501 233.34245295 104.02340549 233.35631007 C110.18342067 233.36942155 116.34341143 233.37474953 122.50344044 233.374111 C126.13437012 233.37385918 129.76523156 233.3765384 133.39614677 233.38728905 C137.40404325 233.39885761 141.41176905 233.39420116 145.41967773 233.38818359 C147.16263123 233.39661285 147.16263123 233.39661285 148.9407959 233.4052124 C162.90147588 233.66075174 162.90147588 233.66075174 175.73828125 229.14526367 C178.58697092 223.21042446 179.40260862 217.60134638 179.88671875 211.08666992 C180.00531754 209.59811241 180.00531754 209.59811241 180.12631226 208.07948303 C181.06828258 195.15764437 181.2035592 182.20838426 181.3397789 169.25804138 C181.36362681 167.05078028 181.39035259 164.84357068 181.4178772 162.63635254 C181.73882866 136.67328933 181.86883094 110.70830142 181.91905975 84.74342728 C181.92572962 81.9171425 181.93582716 79.09088883 181.94683838 76.26461792 C181.96363161 71.77096341 181.96955342 67.2774119 181.96760368 62.78372765 C181.96834997 61.13721907 181.97235822 59.49070768 181.98013496 57.8442173 C182.01748437 49.32309073 181.78511415 40.87495279 180.97387695 32.38842773 C180.91305781 31.64992458 180.85223867 30.91142143 180.78957653 30.1505394 C180.24909781 25.19966544 178.89042816 21.9925956 175.73828125 18.14526367 C173.22491898 17.16563476 173.22491898 17.16563476 170.390625 17.15698242 C169.30716797 17.0905957 168.22371094 17.02420898 167.10742188 16.95581055 C165.97498047 16.91520508 164.84253906 16.87459961 163.67578125 16.83276367 C162.63228516 16.77282227 161.58878906 16.71288086 160.51367188 16.65112305 C157.39074441 16.4829515 154.26818383 16.3534772 151.14291382 16.23812866 C148.41090035 16.13262048 145.6798214 16.01046626 142.94848633 15.88867188 C124.81479279 15.11148643 106.69728488 14.94314687 88.55078125 14.95776367 C87.43167233 14.95816399 87.43167233 14.95816399 86.28995514 14.95857239 C25.54071733 13.60422493 25.54071733 13.60422493 -34.26171875 22.14526367 Z " fill="#FCFCFC" transform="translate(1114.26171875,25.854736328125)"/>
<path d="M0 0 C8.91957822 -0.06988063 17.83906046 -0.12300275 26.75885391 -0.15543652 C30.90183516 -0.17101253 35.04462745 -0.19210097 39.1875 -0.22631836 C43.1945961 -0.25920267 47.20151185 -0.27691345 51.2087326 -0.28463173 C52.72835881 -0.2901236 54.24797649 -0.30084592 55.76752472 -0.31719017 C71.51568193 -0.47965504 83.41581568 1.73490787 95.1875 12.75 C104.17738153 22.13464679 107.57059404 32.03833444 107.37890625 44.9453125 C106.65030053 55.77255016 102.07965032 66.63405036 94.58984375 74.4765625 C83.59869372 83.64053926 64.82202671 85.13992567 51.25 87.125 C50.04472656 87.30675781 48.83945313 87.48851562 47.59765625 87.67578125 C45.85548828 87.93294922 45.85548828 87.93294922 44.078125 88.1953125 C43.03043945 88.35016113 41.98275391 88.50500977 40.90332031 88.66455078 C38.23492242 88.9728571 35.6825684 89.06363532 33 89 C33.02320313 90.26972656 33.04640625 91.53945312 33.0703125 92.84765625 C33.42841623 120.87815771 33.42841623 120.87815771 28 130 C24.36780895 132.4214607 22.50841442 132.29869516 18.1875 132.3125 C16.98480469 132.32925781 15.78210937 132.34601563 14.54296875 132.36328125 C10.61304251 131.96032299 8.29883054 131.16000459 5 129 C1.81781298 124.87290704 1.45778304 120.98335201 1.26953125 115.9375 C1.22929337 115.10976578 1.18905548 114.28203156 1.14759827 113.42921448 C1.01884002 110.6199276 0.91436773 107.81038367 0.8125 105 C0.77263977 104.02376678 0.73277954 103.04753357 0.69171143 102.04171753 C-0.67200927 68.06081926 -0.17552537 34.00037867 0 0 Z " fill="#FCFCFC" transform="translate(1132,87)"/>
<path d="M0 0 C11.81367469 8.18623931 24.12862466 22.59507522 26.88671875 37.20703125 C27.10685062 40.60002187 27.07185638 43.99508021 27.07421875 47.39453125 C27.08646484 48.30267578 27.09871094 49.21082031 27.11132812 50.14648438 C27.14363492 65.19068214 22.00389092 78.76313698 11.69921875 89.83203125 C0.68247063 100.31256597 -11.63775468 104.51239985 -26.6171875 104.359375 C-41.5714032 103.70773878 -58.47171304 100.38606439 -69.23828125 89.26953125 C-77.85805812 78.99475722 -82.5044212 66.84450859 -82.42578125 53.51953125 C-82.4201416 52.53364014 -82.41450195 51.54774902 -82.40869141 50.53198242 C-82.15668466 35.45773728 -77.08784037 23.61428801 -66.6484375 12.6171875 C-47.5324185 -5.55628511 -24.17860802 -13.92469396 0 0 Z " fill="#FCFCFC" transform="translate(856.11328125,705.79296875)"/>
<path d="M0 0 C4.4577131 2.7978492 8.45429796 6.03714479 12.40234375 9.5078125 C13.15 10.16007813 13.89765625 10.81234375 14.66796875 11.484375 C24.30036798 20.43893873 27.17392956 32.68364724 27.65625 45.5390625 C27.68677006 47.29932295 27.7063586 49.05980794 27.71484375 50.8203125 C27.72032227 51.64378174 27.72580078 52.46725098 27.73144531 53.31567383 C27.55402546 68.54166176 21.65990599 78.54283217 11.40234375 89.5078125 C0.48239912 99.63836354 -8.80727841 102.73186748 -23.42993164 102.85791016 C-24.8174738 102.87432316 -26.20493671 102.9014153 -27.59204102 102.93994141 C-40.75133426 103.30236955 -52.67927693 100.74292569 -62.59765625 91.5078125 C-71.45116316 83.10681816 -80.35785455 69.49103844 -80.99609375 56.9921875 C-81.00913718 55.41409707 -81.00073552 53.83570702 -80.97265625 52.2578125 C-80.96177979 51.4229834 -80.95090332 50.5881543 -80.93969727 49.72802734 C-80.50908673 32.92284166 -73.73035128 19.14748282 -61.59765625 7.5078125 C-57.61880285 3.97939534 -53.40000213 1.6977233 -48.66015625 -0.6171875 C-47.96986328 -0.96394531 -47.27957031 -1.31070313 -46.56835938 -1.66796875 C-31.48763944 -9.12970885 -14.83288612 -8.02947158 0 0 Z " fill="#FCFCFC" transform="translate(344.59765625,707.4921875)"/>
<path d="M0 0 C10.82103321 6.22926873 19.9563039 15.73853916 24.3125 27.5625 C26.10205927 36.51029633 24.37942046 45.55886415 19.52734375 53.37109375 C11.59168611 62.99518919 0.3738876 68.9739436 -11.7109375 71.5859375 C-20.76906474 72.37478342 -28.44096856 67.40221076 -36 63 C-36.85464844 62.52304687 -37.70929688 62.04609375 -38.58984375 61.5546875 C-45.80135141 56.93157127 -48.53119279 49.00583785 -51.375 41.25 C-53.35777411 30.9395746 -50.44866174 24.49660143 -44.8125 15.9375 C-34.29173909 1.5218191 -17.44349373 -8.37884058 0 0 Z " fill="#363636" transform="translate(332,722)"/>
<path d="M0 0 C8.05284051 4.50798547 13.78361545 11.91142414 16.9375 20.5625 C19.61516268 31.15600297 19.54025387 43.41109907 14 53 C8.95165448 61.34918683 -0.52886557 65.88297854 -9.640625 68.33203125 C-22.43448456 70.87592658 -30.63972248 67.86056063 -41.3125 60.8125 C-49.31201061 52.44091913 -55.87946848 40.52895704 -56.6875 28.8125 C-56.128628 19.47782719 -48.57931674 11.09763631 -42 5 C-27.70655838 -5.79907618 -16.51887721 -8.17272534 0 0 Z " fill="#363636" transform="translate(847,724)"/>
<path d="M0 0 C0.86399414 -0.01321289 1.72798828 -0.02642578 2.61816406 -0.04003906 C7.37926658 -0.0455688 11.31569946 0.22976669 15.75 2.1875 C20.17278688 6.76279677 19.95542181 11.98872127 20 18.0625 C20.020625 18.75730469 20.04125 19.45210937 20.0625 20.16796875 C20.09847558 24.94372674 19.48409827 28.2471819 16.75 32.1875 C11.53313441 36.06335312 5.85570848 35.64794167 -0.375 35.5625 C-1.40020752 35.55524902 -2.42541504 35.54799805 -3.48168945 35.54052734 C-12.08429379 35.38353306 -20.68137527 34.69925038 -28.25 30.1875 C-31.91477352 24.16680064 -31.92275992 18.09770549 -31.25 11.1875 C-30.01929454 6.88003089 -28.47922885 5.04279649 -24.6875 2.875 C-16.87747551 -0.5042027 -8.35675953 0.08752114 0 0 Z " fill="#373737" transform="translate(1189.25,112.8125)"/>
</svg>
