<svg width="92" height="26" viewBox="0 0 92 26" fill="none" xmlns="http://www.w3.org/2000/svg">
<path d="M29.152 7.92H29.056C28.816 8.592 28.528 9.392 28.192 10.32C27.872 11.248 27.536 12.208 27.184 13.2C26.848 14.176 26.528 15.088 26.224 15.936L26.104 16.296C26.008 16.584 25.888 16.944 25.744 17.376C25.6 17.808 25.448 18.264 25.288 18.744C25.128 19.208 24.976 19.648 24.832 20.064C24.688 20.464 24.576 20.792 24.496 21.048C24.384 21.096 24.264 21.128 24.136 21.144C24.024 21.176 23.88 21.192 23.704 21.192C23.448 21.192 23.216 21.128 23.008 21C22.816 20.856 22.72 20.632 22.72 20.328C22.72 20.184 22.744 20.04 22.792 19.896C22.84 19.736 22.896 19.568 22.96 19.392C23.152 18.848 23.384 18.184 23.656 17.4C23.944 16.616 24.256 15.76 24.592 14.832C24.928 13.904 25.28 12.952 25.648 11.976C26.016 11 26.376 10.048 26.728 9.12C27.08 8.192 27.408 7.344 27.712 6.576C27.84 6.512 28.032 6.448 28.288 6.384C28.544 6.32 28.808 6.288 29.08 6.288C29.4 6.288 29.704 6.336 29.992 6.432C30.296 6.528 30.488 6.688 30.568 6.912C30.952 7.84 31.36 8.896 31.792 10.08C32.24 11.248 32.688 12.472 33.136 13.752C33.584 15.016 34.008 16.248 34.408 17.448C34.824 18.648 35.192 19.736 35.512 20.712C35.4 20.856 35.248 20.968 35.056 21.048C34.88 21.144 34.68 21.192 34.456 21.192C34.152 21.192 33.92 21.128 33.76 21C33.6 20.856 33.464 20.624 33.352 20.304L32.032 16.392L31.84 15.72C31.52 14.744 31.184 13.76 30.832 12.768C30.496 11.776 30.176 10.856 29.872 10.008C29.584 9.16 29.344 8.464 29.152 7.92ZM25.168 17.112L25.792 15.504H32.488L32.872 17.112H25.168ZM39.8031 13.848H42.5631C43.7471 13.848 44.6751 13.592 45.3471 13.08C46.0191 12.568 46.3551 11.808 46.3551 10.8C46.3551 9.808 46.0031 9.056 45.2991 8.544C44.5951 8.032 43.5871 7.776 42.2751 7.776C41.8431 7.776 41.4031 7.8 40.9551 7.848C40.5231 7.88 40.1391 7.928 39.8031 7.992V13.848ZM42.5631 15.48H37.8591V7.464C37.8591 7.208 37.9231 7.016 38.0511 6.888C38.1951 6.744 38.3951 6.632 38.6511 6.552C39.1151 6.408 39.6831 6.304 40.3551 6.24C41.0431 6.176 41.7071 6.144 42.3471 6.144C44.3471 6.144 45.8431 6.552 46.8351 7.368C47.8271 8.184 48.3231 9.328 48.3231 10.8C48.3231 11.744 48.1071 12.568 47.6751 13.272C47.2431 13.976 46.6031 14.52 45.7551 14.904C44.9071 15.288 43.8431 15.48 42.5631 15.48ZM42.6111 14.856L44.0511 14.136C44.4991 14.696 44.9631 15.28 45.4431 15.888C45.9231 16.496 46.3871 17.088 46.8351 17.664C47.2831 18.24 47.6831 18.76 48.0351 19.224C48.3871 19.672 48.6591 20.024 48.8511 20.28C48.7871 20.552 48.6431 20.768 48.4191 20.928C48.2111 21.088 47.9951 21.168 47.7711 21.168C47.4991 21.168 47.2751 21.104 47.0991 20.976C46.9231 20.832 46.7391 20.632 46.5471 20.376L42.6111 14.856ZM37.8591 14.952H39.8271V20.952C39.7311 20.984 39.6031 21.016 39.4431 21.048C39.2831 21.096 39.1071 21.12 38.9151 21.12C38.5631 21.12 38.2991 21.048 38.1231 20.904C37.9471 20.76 37.8591 20.536 37.8591 20.232V14.952ZM53.0239 13.56L54.5359 12.6C56.2319 14.232 57.6879 15.688 58.9039 16.968C60.1359 18.248 61.1759 19.272 62.0239 20.04C62.0079 20.392 61.9039 20.672 61.7119 20.88C61.5199 21.072 61.2799 21.168 60.9919 21.168C60.7199 21.168 60.4719 21.088 60.2479 20.928C60.0399 20.768 59.8239 20.584 59.5999 20.376L53.0239 13.56ZM54.7999 14.232L52.8559 13.8L60.0799 6.312C60.4959 6.328 60.8079 6.432 61.0159 6.624C61.2239 6.816 61.3279 7.04 61.3279 7.296C61.3279 7.504 61.2719 7.704 61.1599 7.896C61.0639 8.072 60.9039 8.256 60.6799 8.448L54.7999 14.232ZM51.5119 12.192H53.4799V20.976C53.3839 21.008 53.2559 21.04 53.0959 21.072C52.9359 21.12 52.7599 21.144 52.5679 21.144C52.2159 21.144 51.9519 21.072 51.7759 20.928C51.5999 20.784 51.5119 20.56 51.5119 20.256V12.192ZM53.4799 13.8H51.5119V6.456C51.5919 6.424 51.7119 6.392 51.8719 6.36C52.0479 6.312 52.2319 6.288 52.4239 6.288C52.7759 6.288 53.0399 6.36 53.2159 6.504C53.3919 6.632 53.4799 6.856 53.4799 7.176V13.8ZM64.0045 6.408C64.0045 6.072 64.1245 5.792 64.3645 5.568C64.6045 5.328 64.9005 5.208 65.2525 5.208C65.6205 5.208 65.9165 5.328 66.1405 5.568C66.3645 5.792 66.4765 6.072 66.4765 6.408C66.4765 6.744 66.3645 7.032 66.1405 7.272C65.9165 7.496 65.6205 7.608 65.2525 7.608C64.9005 7.608 64.6045 7.496 64.3645 7.272C64.1245 7.032 64.0045 6.744 64.0045 6.408ZM64.2925 14.664H66.2125V20.952C66.1325 20.984 66.0125 21.016 65.8525 21.048C65.6925 21.096 65.5165 21.12 65.3245 21.12C64.9885 21.12 64.7325 21.056 64.5565 20.928C64.3805 20.784 64.2925 20.56 64.2925 20.256V14.664ZM66.2125 15.6H64.2925V9.96C64.3725 9.928 64.4925 9.896 64.6525 9.864C64.8285 9.816 65.0125 9.792 65.2045 9.792C65.5405 9.792 65.7885 9.864 65.9485 10.008C66.1245 10.136 66.2125 10.36 66.2125 10.68V15.6ZM69.5056 14.664H71.4256V17.976C71.4256 18.616 71.6096 19.072 71.9776 19.344C72.3456 19.6 72.8496 19.728 73.4896 19.728C73.7616 19.728 74.0656 19.68 74.4016 19.584C74.7376 19.488 75.0176 19.376 75.2416 19.248C75.3376 19.344 75.4256 19.464 75.5056 19.608C75.5856 19.752 75.6256 19.92 75.6256 20.112C75.6256 20.464 75.4176 20.752 75.0016 20.976C74.5856 21.2 74.0096 21.312 73.2736 21.312C72.1536 21.312 71.2416 21.064 70.5376 20.568C69.8496 20.072 69.5056 19.248 69.5056 18.096V14.664ZM70.4896 11.736V10.152H75.3616C75.4096 10.216 75.4576 10.32 75.5056 10.464C75.5536 10.608 75.5776 10.76 75.5776 10.92C75.5776 11.176 75.5136 11.376 75.3856 11.52C75.2576 11.664 75.0816 11.736 74.8576 11.736H70.4896ZM71.4256 15.384H69.5056V6.696C69.5856 6.664 69.7056 6.632 69.8656 6.6C70.0416 6.552 70.2256 6.528 70.4176 6.528C70.7536 6.528 71.0016 6.6 71.1616 6.744C71.3376 6.872 71.4256 7.088 71.4256 7.392V15.384Z" fill="black"/>
<path d="M16.3846 1H5.61538C4.39131 1 3.21737 1.58351 2.35181 2.62218C1.48626 3.66084 1 5.06957 1 6.53846V19.4615C1 20.9304 1.48626 22.3392 2.35181 23.3778C3.21737 24.4165 4.39131 25 5.61538 25H16.3846C17.6087 25 18.7826 24.4165 19.6482 23.3778C20.5137 22.3392 21 20.9304 21 19.4615V6.53846C21 5.06957 20.5137 3.66084 19.6482 2.62218C18.7826 1.58351 17.6087 1 16.3846 1Z" stroke="black" stroke-width="1.85714" stroke-linecap="round" stroke-linejoin="round"/>
<path d="M7 20.052V14.6143M7 14.6143V7H12.915C13.6538 7 14.3624 7.29349 14.8848 7.81592C15.4072 8.33834 15.7007 9.0469 15.7007 9.78571V11.8286C15.7007 12.5674 15.4072 13.2759 14.8848 13.7984C14.3624 14.3208 13.6538 14.6143 12.915 14.6143H7Z" stroke="black" stroke-width="1.85714" stroke-linecap="round" stroke-linejoin="round"/>
</svg>
