<svg width="2617" height="863" viewBox="0 0 2617 863" fill="none" xmlns="http://www.w3.org/2000/svg">
<path d="M2564.62 5.74884C2572.54 13.6771 2572.54 275.776 2564.62 283.704C2560.89 287.435 2538.97 289.3 2497 289.3H2434.99V548.135V806.969H2525.91H2616.84V834.951V862.933H1308.89H0.932861V834.951V806.969H109.113C193.046 806.969 215.894 805.57 211.698 801.372C208.434 798.108 206.102 781.318 206.102 759.399V723.022H187.917C167.4 723.022 164.602 719.291 166.934 692.709C167.866 682.448 170.198 647.471 172.063 615.291C176.259 551.399 178.591 544.87 207.501 527.148L220.557 519.22L186.984 516.888C135.692 513.157 119.372 488.906 157.141 473.516C181.389 463.256 200.04 464.655 208.434 477.713C212.164 483.776 214.495 492.17 212.63 496.368C210.765 501.031 212.164 503.83 215.894 503.83C220.557 503.83 225.22 489.839 230.816 460.924C240.608 409.623 260.658 365.318 283.041 345.731L299.827 331.274H466.76C624.368 331.274 634.626 331.74 645.351 340.135C662.138 353.659 691.048 418.951 699.907 464.188C707.368 504.762 717.16 516.422 719.958 488.906C721.823 468.386 739.542 461.857 766.588 471.184C793.166 480.978 798.762 491.238 785.239 504.762C776.846 513.157 768.919 515.489 745.604 516.422C729.75 516.888 714.363 517.354 712.031 517.821C709.233 517.821 713.896 522.018 721.823 526.682C752.132 545.336 756.329 555.596 756.329 612.96C756.329 643.74 758.194 667.058 761.458 670.323C763.79 672.655 765.655 685.247 764.722 697.839L763.323 720.691L744.672 723.022L726.02 725.354L724.621 760.332C723.688 779.453 720.891 797.641 718.093 800.906C714.363 805.57 719.026 806.969 741.874 806.969H770.318V788.314V769.659H814.616H858.914V788.314V806.969H901.346C935.852 806.969 942.847 805.57 939.116 800.906C936.318 797.641 933.521 778.054 932.588 758L931.189 720.691L913.47 720.224C890.622 719.758 885.959 712.296 889.223 683.381C891.088 670.323 892.953 637.677 894.352 610.628L896.683 560.726L922.33 532.744C936.318 517.354 947.51 503.363 947.51 501.964C947.51 500.565 933.521 499.166 915.802 499.166C878.498 499.166 861.711 491.704 859.846 475.381C858.914 465.587 861.245 461.857 874.301 455.327C906.942 439.937 938.184 447.865 938.184 471.184C938.184 492.637 950.774 488.906 956.835 465.121C984.347 358.323 990.409 345.731 1018.85 331.74C1038.44 322.413 1045.9 321.946 1203.04 321.946C1383.49 321.946 1395.15 323.345 1413.8 350.395C1418.93 357.39 1431.06 390.969 1440.38 424.081C1454.37 473.049 1459.5 485.175 1466.03 485.175C1472.09 485.175 1474.42 481.444 1474.42 472.117C1474.42 455.327 1482.35 447.865 1500.53 447.865C1532.24 447.865 1557.42 465.121 1550.89 482.377C1546.7 492.637 1535.97 495.901 1496.8 498.7L1460.43 501.498L1486.08 530.413L1511.73 558.861V608.296C1511.73 635.812 1513.59 658.664 1516.39 660.063C1523.38 664.26 1522.45 718.359 1514.99 718.825C1507.99 719.758 1492.61 721.623 1484.68 722.09C1480.95 723.022 1479.08 733.749 1479.08 759.399C1479.08 782.251 1476.75 798.108 1473.49 801.372C1468.83 806.036 1474.89 806.969 1504.73 806.036L1542.03 804.637L1543.43 786.915L1544.83 769.659H1586.8H1628.3V788.314V806.969H1659.54C1683.79 806.969 1689.38 805.57 1685.19 801.372C1681.92 798.108 1679.59 781.785 1679.59 760.798C1679.59 726.287 1679.12 725.354 1665.6 717.426C1652.55 709.964 1651.61 707.632 1651.15 680.117C1649.28 586.843 1652.08 553.731 1663.74 530.879C1670.27 518.287 1670.27 518.287 1650.68 513.157C1639.49 510.359 1627.83 507.094 1624.57 506.161C1615.71 502.897 1618.04 478.179 1629.23 464.188C1637.62 452.996 1641.35 451.596 1657.21 453.928C1667.47 455.327 1679.12 459.525 1683.79 463.722C1688.45 467.919 1693.58 471.184 1695.45 471.184C1696.84 471.184 1714.1 446.933 1733.68 417.552C1753.27 388.17 1770.52 362.987 1772.85 361.587C1782.64 355.525 1913.2 344.798 1978.02 344.798C2042.83 344.798 2173.4 355.525 2183.19 361.587C2185.52 362.987 2202.77 388.17 2222.36 417.552C2241.94 446.933 2259.19 471.184 2260.59 471.184C2262.46 471.184 2267.59 467.919 2272.25 463.722C2276.91 459.525 2289.97 454.861 2300.69 453.928C2319.81 451.596 2321.68 452.529 2329.6 467.453C2341.73 489.839 2338.46 504.762 2319.81 509.426L2305.36 513.157L2314.68 537.874C2322.61 556.996 2324.94 576.117 2326.81 630.682L2328.67 698.771L2317.01 710.897C2309.09 718.825 2299.76 723.022 2290.44 723.022H2276.45V759.399C2276.45 781.318 2274.12 798.108 2270.85 801.372C2266.66 805.57 2281.58 806.969 2338.46 806.969H2411.67V548.135V289.3H2351.52C2307.22 289.3 2290.44 287.901 2286.24 283.238C2278.31 273.444 2278.78 9.01343 2286.71 4.34979C2296.96 -2.17938 2558.09 -0.780273 2564.62 5.74884ZM2310.02 29.0673C2302.09 36.9955 2302.09 252.457 2310.02 260.386C2314.22 264.583 2346.39 265.982 2426.59 265.982C2528.25 265.982 2537.57 265.516 2541.77 257.587C2548.3 245.928 2548.3 44.4574 2542.23 32.7982C2537.57 23.9372 2532.44 23.4708 2426.59 23.4708C2346.39 23.4708 2314.22 24.8699 2310.02 29.0673ZM1052.43 345.265C1023.05 351.794 1007.66 372.78 993.206 424.547C986.212 448.798 979.218 476.78 977.352 486.108L974.555 503.83H1205.84C1333.13 503.83 1437.12 502.897 1437.12 501.964C1437.12 500.565 1429.66 473.982 1420.8 442.269C1399.35 369.049 1390.96 355.058 1360.18 345.731C1341.99 340.135 1076.67 339.668 1052.43 345.265ZM467.227 354.126C467.227 356.924 476.086 359.256 486.811 360.188C504.53 361.587 506.862 362.987 506.862 373.247C506.862 384.906 506.396 384.906 464.895 384.906C423.395 384.906 422.929 384.906 422.929 373.247C422.929 362.987 425.26 361.587 442.513 360.188C453.704 359.256 462.564 356.924 462.564 354.126C462.564 351.794 430.856 349.928 386.092 349.928H309.619L292.833 368.583C270.451 393.767 258.793 422.682 245.737 488.439L242.473 503.83H270.917H299.361V484.709C299.361 462.789 305.889 447.865 315.681 447.865C319.878 447.865 322.676 443.668 322.676 437.139C322.676 420.816 331.535 415.22 358.58 415.22C380.03 415.22 384.227 416.619 387.49 425.48C389.822 431.543 390.288 439.004 389.356 441.803C387.957 445.534 390.755 447.865 396.816 447.865C408.94 447.865 411.271 453.462 412.67 480.978L413.603 501.498L465.828 502.897L518.053 504.296L519.452 479.578C520.384 459.525 522.716 453.928 531.109 450.197C537.637 447.399 541.834 440.87 542.766 431.543C544.165 418.484 545.564 417.552 564.682 416.152C596.856 413.821 607.115 418.018 607.115 432.942C607.115 441.803 610.379 446.933 617.373 450.197C626.233 453.928 628.564 459.058 629.497 479.112L630.896 503.83H658.874C673.795 503.83 686.385 502.43 686.385 500.099C685.919 483.776 670.531 429.211 658.407 403.094C633.694 348.529 636.958 349.928 545.564 349.928C499.867 349.928 467.227 351.794 467.227 354.126ZM1839.06 365.785C1807.36 369.049 1779.84 373.713 1777.51 376.045C1770.05 384.439 1698.71 496.834 1700.11 498.233C1701.04 499.166 1724.82 496.834 1752.33 493.57C1821.34 485.175 2134.69 485.175 2203.71 493.57C2231.22 496.834 2255 499.166 2255.46 498.233C2259.19 494.502 2178.53 375.578 2170.6 372.78C2165.94 371.381 2132.83 367.184 2096.92 364.386C2061.02 361.121 2027.45 357.857 2022.32 356.924C2006.46 354.126 1899.22 359.256 1839.06 365.785ZM2233.55 543.471L2221.42 557.462L1984.55 558.861C1817.61 559.794 1743.47 558.395 1734.61 554.664C1728.09 551.865 1716.89 541.605 1710.37 531.345C1703.37 521.552 1694.98 513.157 1691.25 513.157C1681.46 513.157 1688.45 526.215 1711.3 550L1728.55 568.188L1830.67 571.453C1961.23 576.117 2209.3 571.919 2226.09 565.39C2240.54 559.327 2268.99 520.152 2264.32 512.224C2261.99 508.493 2258.26 510.359 2253.6 518.287C2249.4 524.35 2240.54 535.543 2233.55 543.471ZM2257.8 568.655C2257.8 571.453 2259.66 574.717 2262.46 576.117C2270.85 581.247 2267.59 602.7 2255 623.686C2245.21 640.942 2244.27 643.74 2251.73 640.009C2256.4 637.211 2267.12 628.35 2275.51 619.955C2294.63 601.3 2295.1 579.848 2276.45 570.52C2262.46 563.525 2257.8 563.058 2257.8 568.655ZM1671.2 574.717C1660.47 583.578 1664.67 604.099 1680.52 618.556C1711.3 646.538 1713.63 647.471 1701.04 622.753C1688.45 599.435 1685.65 581.247 1693.58 576.117C1695.91 574.717 1698.24 570.987 1698.24 568.655C1698.24 563.525 1680.52 567.722 1671.2 574.717ZM2215.83 576.583C2184.59 589.175 2178.53 614.359 2201.37 638.61C2218.16 656.332 2225.15 654.466 2243.81 626.018C2259.66 602.233 2261.99 581.247 2249.4 574.251C2238.68 567.722 2237.74 567.722 2215.83 576.583ZM1707.1 573.785C1696.84 579.381 1695.45 598.969 1704.3 613.892C1716.43 634.879 1730.42 648.404 1739.28 648.404C1754.2 648.404 1769.12 626.018 1767.25 606.897C1765.86 592.439 1763.06 588.709 1744.87 579.381C1721.09 567.722 1719.69 567.256 1707.1 573.785ZM1444.11 611.094V636.744H1460.43C1476.29 636.744 1476.75 636.278 1478.15 616.224C1480.48 587.309 1477.22 582.179 1459.5 584.045C1444.11 585.444 1444.11 585.444 1444.11 611.094ZM1364.84 611.094V636.744H1399.81H1434.79L1436.19 620.888C1437.12 612.027 1436.65 599.901 1434.79 593.839C1432.46 583.112 1430.59 582.646 1398.42 584.045L1364.84 585.444V611.094ZM1137.29 586.377C1173.66 587.309 1234.28 587.309 1272.52 586.377C1310.29 585.91 1280.44 584.978 1206.3 584.978C1131.7 584.978 1100.92 585.91 1137.29 586.377ZM975.487 611.094V639.076H1009.99C1029.11 639.076 1045.43 637.211 1046.36 634.413C1046.83 632.081 1046.83 619.489 1046.36 606.43L1044.5 583.112H1009.99H975.487V611.094ZM935.852 611.094C935.852 636.744 935.852 636.744 950.774 638.143L966.161 639.543V611.094V582.646L950.774 584.045C935.852 585.444 935.852 585.444 935.852 611.094ZM1899.68 591.04C1943.05 591.973 2012.99 591.973 2055.89 591.04C2099.26 590.574 2063.82 589.641 1978.02 589.641C1892.22 589.641 1856.78 590.574 1899.68 591.04ZM668.666 595.704C654.211 608.762 652.345 621.821 663.536 635.812C681.722 659.13 719.026 647.937 719.026 619.022C719.026 607.83 698.509 587.776 687.318 587.776C682.188 587.776 673.795 591.507 668.666 595.704ZM325.473 597.103C322.209 600.368 332.934 601.767 356.715 601.767C376.3 601.767 392.62 603.632 392.62 605.964C392.62 608.296 375.833 609.695 355.316 609.229C334.799 609.229 318.013 610.161 318.013 612.027C318.013 614.359 334.799 615.758 355.316 615.758C377.232 615.758 392.62 617.623 392.62 620.422C392.62 623.22 377.232 625.085 355.316 625.085C304.024 625.085 306.822 633.946 358.58 635.345L399.614 636.278L360.912 637.677C339.928 638.61 322.676 641.408 322.676 643.74C322.676 648.87 335.266 648.87 508.261 648.87C618.772 648.87 660.272 643.74 588.463 638.61L548.828 636.278L587.064 635.345C639.289 633.946 643.02 625.085 591.261 625.085C567.48 625.085 551.16 623.22 551.16 620.422C551.16 617.623 567.946 615.758 591.727 615.758C613.643 615.758 630.43 614.359 628.564 612.493C626.699 610.628 608.514 609.695 588.463 610.161C564.682 611.094 551.16 609.695 551.16 606.897C551.16 603.632 565.615 601.767 589.396 601.767C636.025 601.767 633.227 595.704 584.733 592.439C525.047 588.709 330.603 591.973 325.473 597.103ZM224.754 597.103C205.17 616.691 218.226 648.404 246.203 648.404C273.249 648.404 285.372 618.09 266.72 598.036C254.597 585.444 236.878 584.978 224.754 597.103ZM1137.29 595.704C1173.66 596.637 1234.28 596.637 1272.52 595.704C1310.29 595.238 1280.44 594.305 1206.3 594.305C1131.7 594.305 1100.92 595.238 1137.29 595.704ZM1824.14 601.767C1824.14 604.565 1878.7 606.43 1978.02 606.43C2077.34 606.43 2131.9 604.565 2131.9 601.767C2131.9 598.969 2077.34 597.103 1978.02 597.103C1878.7 597.103 1824.14 598.969 1824.14 601.767ZM1073.41 611.094C1073.41 620.422 1076.67 620.422 1203.97 620.422C1331.27 620.422 1334.53 620.422 1334.53 611.094C1334.53 601.767 1331.27 601.767 1203.97 601.767C1076.67 601.767 1073.41 601.767 1073.41 611.094ZM1824.14 615.758C1824.14 618.556 1878.7 620.422 1978.02 620.422C2077.34 620.422 2131.9 618.556 2131.9 615.758C2131.9 612.96 2077.34 611.094 1978.02 611.094C1878.7 611.094 1824.14 612.96 1824.14 615.758ZM1899.68 628.35C1943.05 629.283 2012.99 629.283 2055.89 628.35C2099.26 627.883 2063.82 626.951 1978.02 626.951C1892.22 626.951 1856.78 627.883 1899.68 628.35ZM1137.29 628.35C1174.13 629.283 1233.81 629.283 1270.18 628.35C1307.02 627.883 1277.18 626.951 1203.97 626.951C1130.76 626.951 1100.92 627.883 1137.29 628.35ZM1824.14 639.076C1824.14 641.874 1878.7 643.74 1978.02 643.74C2077.34 643.74 2131.9 641.874 2131.9 639.076C2131.9 636.278 2077.34 634.413 1978.02 634.413C1878.7 634.413 1824.14 636.278 1824.14 639.076ZM1137.29 637.677C1174.13 638.61 1233.81 638.61 1270.18 637.677C1307.02 637.211 1277.18 636.278 1203.97 636.278C1130.76 636.278 1100.92 637.211 1137.29 637.677ZM1826.01 652.601C1829.27 657.731 2131.9 657.731 2131.9 652.135C2131.9 650.269 2062.42 648.404 1977.55 648.404C1888.96 648.404 1824.61 650.269 1826.01 652.601ZM2127.23 689.91C2123.97 696.906 2124.44 701.103 2130.03 706.7C2138.89 715.094 2145.42 714.161 2152.41 703.435C2155.68 697.839 2155.21 693.641 2151.01 688.511C2142.62 678.251 2133.29 679.184 2127.23 689.91ZM1803.63 691.309C1799.89 697.839 1800.36 701.103 1805.96 706.7C1819.01 720.224 1840 701.57 1828.34 687.112C1821.34 679.184 1810.62 681.049 1803.63 691.309ZM1130.3 702.969L1128.9 718.359H1089.73C1049.16 718.359 1034.24 721.157 1038.9 728.152C1040.3 730.484 1061.29 732.35 1085.53 732.35C1113.98 732.35 1129.36 734.215 1129.36 737.48C1129.36 740.744 1113.51 742.144 1080.4 740.744L1031.44 739.345V764.063C1031.44 777.587 1029.11 792.978 1026.78 798.108C1021.65 806.969 1025.38 806.969 1207.24 806.969C1351.32 806.969 1390.96 805.57 1386.76 801.372C1383.49 798.108 1381.16 782.251 1381.16 763.13C1381.16 737.946 1379.76 731.883 1375.57 736.081C1368.57 743.076 1278.58 744.009 1278.58 737.013C1278.58 734.682 1298.63 731.883 1323.81 731.417C1355.98 730.484 1369.51 728.152 1370.9 723.955C1371.84 720.691 1369.97 717.892 1366.71 718.825C1362.98 719.291 1341.99 719.291 1319.15 718.825L1278.58 718.359V702.036V685.247L1204.9 686.646L1131.7 688.045L1130.3 702.969ZM401.946 725.354V751.004H464.895H527.845V725.354V699.704H464.895H401.946V725.354ZM1786.84 756.601C1786.84 780.852 1784.97 792.045 1778.91 798.574C1771.45 806.502 1777.98 806.969 1977.55 806.969H2183.65L2176.66 796.709C2171.53 789.713 2169.2 775.722 2169.2 754.735V723.022H1978.02H1786.84V756.601ZM293.765 800.906C290.035 806.036 321.277 806.969 464.429 806.969C636.491 806.969 640.222 806.969 635.093 798.108C632.761 792.978 630.43 776.188 630.43 760.332C630.43 733.749 629.963 732.35 621.57 737.013C616.441 739.345 594.525 741.677 572.609 741.677C542.766 741.677 532.974 743.076 533.44 747.274C534.373 751.937 518.053 753.803 465.828 754.735C407.075 755.668 397.283 754.735 397.283 748.673C397.283 743.076 389.822 741.677 355.316 741.677C325.94 741.677 311.951 739.812 307.754 735.148C302.625 730.018 301.226 734.682 300.293 761.731C299.361 779.919 296.563 797.641 293.765 800.906Z" fill="black"/>
<path d="M2369.99 143.327L2370.92 226.341L2393.3 227.74L2415.22 229.139V192.296V154.987L2443.19 153.121C2479.57 150.323 2494.49 137.731 2494.49 109.283C2494.49 68.2422 2482.36 60.7803 2415.68 60.7803H2369.05L2369.99 143.327ZM2443.66 93.426C2462.31 103.686 2449.26 126.072 2425.01 126.072C2417.08 126.072 2415.22 123.274 2415.22 110.682C2415.22 88.296 2423.61 83.166 2443.66 93.426Z" fill="black"/>
<path d="M541.834 605.031C541.834 607.363 527.379 608.762 509.193 608.762C491.474 608.762 476.553 607.363 476.553 605.031C476.553 603.166 491.008 601.767 509.193 601.767C526.913 601.767 541.834 603.166 541.834 605.031Z" fill="black"/>
<path d="M464.896 606.43C463.497 608.762 449.508 611.094 434.12 611.094C418.732 611.094 406.609 609.229 406.609 606.43C406.609 603.632 420.131 601.767 437.384 601.767C456.502 601.767 466.761 603.632 464.896 606.43Z" fill="black"/>
<path d="M541.834 620.888C541.834 623.22 526.913 625.085 508.727 625.085C487.744 625.085 477.019 623.22 478.884 620.421C482.615 614.825 541.834 615.291 541.834 620.888Z" fill="black"/>
<path d="M467.227 620.421C467.227 623.22 454.17 625.085 436.917 625.085C419.665 625.085 406.608 623.22 406.608 620.421C406.608 617.623 419.665 615.758 436.917 615.758C454.17 615.758 467.227 617.623 467.227 620.421Z" fill="black"/>
<path d="M526.446 637.677C517.12 638.61 501.266 638.61 491.474 637.677C482.148 636.744 490.075 635.812 509.193 635.812C528.311 635.812 536.238 636.744 526.446 637.677Z" fill="black"/>
<path d="M451.839 637.677C442.513 638.61 426.659 638.61 416.867 637.677C407.541 636.744 415.468 635.812 434.586 635.812C453.704 635.812 461.631 636.744 451.839 637.677Z" fill="black"/>
<path d="M1270.18 698.305C1271.12 700.637 1272.05 711.363 1271.58 723.022V744.009L1204.9 745.408L1138.69 746.807V720.691V695.04H1203.5C1239.41 695.04 1269.25 696.439 1270.18 698.305Z" fill="black"/>
</svg>
