<svg width="97" height="47" viewBox="0 0 97 47" fill="none" xmlns="http://www.w3.org/2000/svg">
<path d="M34.6875 9.75C34.4792 9.075 33.8542 8.625 33.2292 8.625H21.7708C21.0417 8.625 20.5208 9.075 20.3125 9.75L18.125 16.5V25.5C18.125 26.0625 18.6458 26.625 19.1667 26.625H20.2083C20.8333 26.625 21.25 26.0625 21.25 25.5V24.375H33.75V25.5C33.75 26.0625 34.2708 26.625 34.7917 26.625H35.8333C36.3542 26.625 36.875 26.0625 36.875 25.5V16.5L34.6875 9.75ZM22.0833 10.875H32.8125L33.9583 14.25H21.0417L22.0833 10.875ZM34.7917 22.125H20.2083V16.5H34.7917V22.125ZM22.8125 17.625C23.6458 17.625 24.375 18.4125 24.375 19.3125C24.375 20.2125 23.6458 21 22.8125 21C21.9792 21 21.25 20.2125 21.25 19.3125C21.25 18.4125 21.9792 17.625 22.8125 17.625ZM32.1875 17.625C33.0208 17.625 33.75 18.4125 33.75 19.3125C33.75 20.2125 33.0208 21 32.1875 21C31.3542 21 30.625 20.2125 30.625 19.3125C30.625 18.4125 31.3542 17.625 32.1875 17.625Z" fill="#152E9F"/>
<path d="M2.61 27V6.758C3.40267 6.66133 4.27267 6.59367 5.22 6.555C6.18667 6.497 7.18233 6.468 8.207 6.468C9.889 6.468 11.3197 6.73867 12.499 7.28C13.6783 7.802 14.5773 8.527 15.196 9.455C15.8147 10.383 16.124 11.4463 16.124 12.645C16.124 14.095 15.7663 15.3227 15.051 16.328C14.3357 17.3333 13.34 18.1067 12.064 18.648C10.788 19.17 9.309 19.431 7.627 19.431C6.815 19.431 6.061 19.402 5.365 19.344V27H2.61ZM7.975 17.14C9.69567 17.14 11.0297 16.7533 11.977 15.98C12.9243 15.2067 13.398 14.1723 13.398 12.877C13.398 11.6203 12.9437 10.6247 12.035 9.89C11.1263 9.15533 9.831 8.788 8.149 8.788C7.627 8.788 7.134 8.79767 6.67 8.817C6.206 8.83633 5.771 8.86533 5.365 8.904V16.995C5.67433 17.0337 6.05133 17.0723 6.496 17.111C6.94067 17.1303 7.43367 17.14 7.975 17.14Z" fill="black"/>
<path d="M53.442 27.348L50.919 21.838C50.281 20.4653 49.4787 19.489 48.512 18.909C47.5453 18.329 46.308 18.039 44.8 18.039H44.365V27H41.61V6.758C42.6347 6.66133 43.611 6.59367 44.539 6.555C45.4863 6.497 46.4917 6.468 47.555 6.468C50.0297 6.468 51.8857 6.97067 53.123 7.976C54.3797 8.98133 55.008 10.2767 55.008 11.862C55.008 13.2733 54.5827 14.414 53.732 15.284C52.9007 16.1347 51.6923 16.7727 50.107 17.198C50.629 17.43 51.093 17.7103 51.499 18.039C51.905 18.3483 52.2917 18.7737 52.659 19.315C53.0457 19.837 53.4323 20.5233 53.819 21.374L56.023 26.13L53.442 27.348ZM44.365 15.719H47.555C48.947 15.719 50.078 15.4097 50.948 14.791C51.818 14.1723 52.253 13.283 52.253 12.123C52.253 11.1563 51.847 10.3637 51.035 9.745C50.223 9.107 49.063 8.788 47.555 8.788C46.8977 8.788 46.308 8.79767 45.786 8.817C45.264 8.83633 44.7903 8.86533 44.365 8.904V15.719ZM72.1234 27.348L62.2634 17.662V27H59.5084V6.7H62.2634V15.951L70.9054 6.613L72.7614 8.324L64.8444 16.56L74.0374 25.376L72.1234 27.348Z" fill="black"/>
<path d="M76.32 27V11.92H78.93V27H76.32ZM77.625 9.339C77.1223 9.339 76.6873 9.15533 76.32 8.788C75.972 8.42067 75.798 7.99533 75.798 7.512C75.798 6.95133 75.9623 6.50667 76.291 6.178C76.6197 5.84933 77.0643 5.685 77.625 5.685C78.1277 5.685 78.553 5.86867 78.901 6.236C79.2683 6.584 79.452 7.00933 79.452 7.512C79.452 8.05333 79.2877 8.498 78.959 8.846C78.6303 9.17467 78.1857 9.339 77.625 9.339ZM88.848 27.348C87.398 27.348 86.2477 26.8743 85.397 25.927C84.5657 24.9603 84.15 23.5877 84.15 21.809V14.733H81.54V12.471H84.208L84.759 7.715H86.76V12.471H90.936V14.733H86.76V22.012C86.76 23.1333 86.992 23.9163 87.456 24.361C87.9393 24.8057 88.5097 25.028 89.167 25.028C89.6503 25.028 90.1047 24.9507 90.53 24.796C90.9747 24.6413 91.3807 24.4577 91.748 24.245L92.473 26.333C92.0863 26.565 91.5643 26.7873 90.907 27C90.2497 27.232 89.5633 27.348 88.848 27.348Z" fill="#152E9F"/>
<path d="M4.112 38.096C3.72267 38.096 3.368 38.0453 3.048 37.944C2.728 37.8373 2.45867 37.6987 2.24 37.528L2.624 36.888C2.816 37.048 3.032 37.1787 3.272 37.28C3.512 37.3813 3.792 37.432 4.112 37.432C4.496 37.432 4.8 37.352 5.024 37.192C5.248 37.032 5.36 36.816 5.36 36.544C5.36 36.3893 5.328 36.2533 5.264 36.136C5.2 36.0133 5.07467 35.896 4.888 35.784C4.70667 35.6667 4.43733 35.5413 4.08 35.408C3.696 35.2587 3.38933 35.1093 3.16 34.96C2.93067 34.8053 2.76533 34.632 2.664 34.44C2.568 34.2427 2.52 34.0107 2.52 33.744C2.52 33.4773 2.592 33.2373 2.736 33.024C2.88533 32.8053 3.10133 32.632 3.384 32.504C3.672 32.3707 4.01867 32.304 4.424 32.304C4.75467 32.304 5.05067 32.3387 5.312 32.408C5.57867 32.472 5.83733 32.5653 6.088 32.688L5.808 33.336C5.62667 33.2293 5.41333 33.1413 5.168 33.072C4.928 32.9973 4.67467 32.96 4.408 32.96C4.056 32.96 3.77867 33.0293 3.576 33.168C3.37333 33.3067 3.272 33.4853 3.272 33.704C3.272 33.8427 3.30133 33.9653 3.36 34.072C3.41867 34.1787 3.53333 34.2827 3.704 34.384C3.88 34.4853 4.14133 34.6 4.488 34.728C4.904 34.8827 5.232 35.0453 5.472 35.216C5.71733 35.3867 5.89067 35.5733 5.992 35.776C6.09333 35.9733 6.144 36.2 6.144 36.456C6.144 36.8027 6.056 37.0987 5.88 37.344C5.70933 37.5893 5.46933 37.776 5.16 37.904C4.856 38.032 4.50667 38.096 4.112 38.096ZM7.18688 38V33.84H7.88288V34.536C8.03221 34.312 8.22154 34.1253 8.45088 33.976C8.68021 33.8213 8.94154 33.744 9.23488 33.744C9.56554 33.744 9.83488 33.824 10.0429 33.984C10.2562 34.144 10.4055 34.3573 10.4909 34.624C10.6562 34.3787 10.8509 34.1707 11.0749 34C11.3042 33.8293 11.5869 33.744 11.9229 33.744C12.3762 33.744 12.7122 33.888 12.9309 34.176C13.1549 34.4587 13.2669 34.8293 13.2669 35.288V38H12.5469V35.344C12.5469 35.056 12.4802 34.824 12.3469 34.648C12.2135 34.4667 12.0295 34.376 11.7949 34.376C11.5549 34.376 11.3309 34.4667 11.1229 34.648C10.9202 34.824 10.7415 35.032 10.5869 35.272V38H9.86688V35.344C9.86688 35.056 9.80021 34.824 9.66688 34.648C9.53354 34.4667 9.34954 34.376 9.11488 34.376C8.88021 34.376 8.65888 34.464 8.45088 34.64C8.24288 34.8107 8.06154 35.0133 7.90688 35.248V38H7.18688ZM16.0992 38.096C15.7525 38.096 15.4379 38.008 15.1552 37.832C14.8725 37.656 14.6459 37.408 14.4752 37.088C14.3099 36.7627 14.2272 36.3813 14.2272 35.944C14.2272 35.528 14.3099 35.1547 14.4752 34.824C14.6459 34.4933 14.8779 34.232 15.1712 34.04C15.4699 33.8427 15.8112 33.744 16.1952 33.744C16.4352 33.744 16.6512 33.7867 16.8432 33.872C17.0405 33.952 17.2112 34.0533 17.3552 34.176V33.84H18.0112V36.992C18.0112 37.1947 18.0592 37.328 18.1552 37.392C18.2565 37.4507 18.3659 37.48 18.4832 37.48L18.3312 38.04C17.8192 38.04 17.5099 37.832 17.4032 37.416C17.2805 37.5867 17.1125 37.744 16.8992 37.888C16.6912 38.0267 16.4245 38.096 16.0992 38.096ZM16.2592 37.456C16.4619 37.456 16.6539 37.408 16.8352 37.312C17.0165 37.2107 17.1685 37.0853 17.2912 36.936V34.704C17.1472 34.6027 16.9872 34.5227 16.8112 34.464C16.6405 34.4 16.4592 34.368 16.2672 34.368C16.0112 34.368 15.7845 34.4347 15.5872 34.568C15.3952 34.696 15.2432 34.8773 15.1312 35.112C15.0192 35.3413 14.9632 35.6107 14.9632 35.92C14.9632 36.2187 15.0192 36.4853 15.1312 36.72C15.2432 36.9493 15.3979 37.1307 15.5952 37.264C15.7925 37.392 16.0139 37.456 16.2592 37.456ZM19.4447 38V33.84H20.1407V34.744C20.21 34.568 20.3034 34.4053 20.4207 34.256C20.538 34.1013 20.6847 33.9787 20.8607 33.888C21.0367 33.792 21.242 33.744 21.4767 33.744C21.5567 33.744 21.6367 33.7493 21.7167 33.76C21.7967 33.7653 21.8634 33.776 21.9167 33.792L21.7007 34.536C21.5994 34.4933 21.4794 34.472 21.3407 34.472C21.1434 34.472 20.954 34.528 20.7727 34.64C20.5967 34.752 20.45 34.9253 20.3327 35.16C20.2207 35.3947 20.1647 35.6933 20.1647 36.056V38H19.4447ZM24.2523 38.096C23.8523 38.096 23.5349 37.9653 23.3003 37.704C23.0709 37.4373 22.9563 37.0587 22.9563 36.568V34.616H22.2363V33.992H22.9723L23.1243 32.68H23.6763V33.992H24.8283V34.616H23.6763V36.624C23.6763 36.9333 23.7403 37.1493 23.8683 37.272C24.0016 37.3947 24.1589 37.456 24.3403 37.456C24.4736 37.456 24.5989 37.4347 24.7163 37.392C24.8389 37.3493 24.9509 37.2987 25.0523 37.24L25.2523 37.816C25.1456 37.88 25.0016 37.9413 24.8203 38C24.6389 38.064 24.4496 38.096 24.2523 38.096ZM28.4544 38V32.416C28.673 32.3893 28.913 32.3707 29.1744 32.36C29.441 32.344 29.7157 32.336 29.9984 32.336C30.4624 32.336 30.857 32.4107 31.1824 32.56C31.5077 32.704 31.7557 32.904 31.9264 33.16C32.097 33.416 32.1824 33.7093 32.1824 34.04C32.1824 34.44 32.0837 34.7787 31.8864 35.056C31.689 35.3333 31.4144 35.5467 31.0624 35.696C30.7104 35.84 30.3024 35.912 29.8384 35.912C29.6144 35.912 29.4064 35.904 29.2144 35.888V38H28.4544ZM29.9344 35.28C30.409 35.28 30.777 35.1733 31.0384 34.96C31.2997 34.7467 31.4304 34.4613 31.4304 34.104C31.4304 33.7573 31.305 33.4827 31.0544 33.28C30.8037 33.0773 30.4464 32.976 29.9824 32.976C29.8384 32.976 29.7024 32.9787 29.5744 32.984C29.4464 32.9893 29.3264 32.9973 29.2144 33.008V35.24C29.2997 35.2507 29.4037 35.2613 29.5264 35.272C29.649 35.2773 29.785 35.28 29.9344 35.28ZM34.4976 38.096C34.151 38.096 33.8363 38.008 33.5536 37.832C33.271 37.656 33.0443 37.408 32.8736 37.088C32.7083 36.7627 32.6256 36.3813 32.6256 35.944C32.6256 35.528 32.7083 35.1547 32.8736 34.824C33.0443 34.4933 33.2763 34.232 33.5696 34.04C33.8683 33.8427 34.2096 33.744 34.5936 33.744C34.8336 33.744 35.0496 33.7867 35.2416 33.872C35.439 33.952 35.6096 34.0533 35.7536 34.176V33.84H36.4096V36.992C36.4096 37.1947 36.4576 37.328 36.5536 37.392C36.655 37.4507 36.7643 37.48 36.8816 37.48L36.7296 38.04C36.2176 38.04 35.9083 37.832 35.8016 37.416C35.679 37.5867 35.511 37.744 35.2976 37.888C35.0896 38.0267 34.823 38.096 34.4976 38.096ZM34.6576 37.456C34.8603 37.456 35.0523 37.408 35.2336 37.312C35.415 37.2107 35.567 37.0853 35.6896 36.936V34.704C35.5456 34.6027 35.3856 34.5227 35.2096 34.464C35.039 34.4 34.8576 34.368 34.6656 34.368C34.4096 34.368 34.183 34.4347 33.9856 34.568C33.7936 34.696 33.6416 34.8773 33.5296 35.112C33.4176 35.3413 33.3616 35.6107 33.3616 35.92C33.3616 36.2187 33.4176 36.4853 33.5296 36.72C33.6416 36.9493 33.7963 37.1307 33.9936 37.264C34.191 37.392 34.4123 37.456 34.6576 37.456ZM37.8431 38V33.84H38.5391V34.744C38.6085 34.568 38.7018 34.4053 38.8191 34.256C38.9365 34.1013 39.0831 33.9787 39.2591 33.888C39.4351 33.792 39.6405 33.744 39.8751 33.744C39.9551 33.744 40.0351 33.7493 40.1151 33.76C40.1951 33.7653 40.2618 33.776 40.3151 33.792L40.0991 34.536C39.9978 34.4933 39.8778 34.472 39.7391 34.472C39.5418 34.472 39.3525 34.528 39.1711 34.64C38.9951 34.752 38.8485 34.9253 38.7311 35.16C38.6191 35.3947 38.5631 35.6933 38.5631 36.056V38H37.8431ZM43.9104 38.08L41.7584 35.864V38H41.0384V32.08H41.7584V35.464L43.6384 33.76L44.0544 34.216L42.4464 35.64L44.4064 37.6L43.9104 38.08ZM45.1244 38V33.84H45.8444V38H45.1244ZM45.4844 33.128C45.3457 33.128 45.2257 33.0773 45.1244 32.976C45.0284 32.8747 44.9804 32.7573 44.9804 32.624C44.9804 32.4693 45.0257 32.3467 45.1164 32.256C45.207 32.1653 45.3297 32.12 45.4844 32.12C45.623 32.12 45.7404 32.1707 45.8364 32.272C45.9377 32.368 45.9884 32.4853 45.9884 32.624C45.9884 32.7733 45.943 32.896 45.8524 32.992C45.7617 33.0827 45.639 33.128 45.4844 33.128ZM47.1244 38V33.84H47.8204V34.536C47.9697 34.312 48.159 34.1253 48.3884 33.976C48.623 33.8213 48.9004 33.744 49.2204 33.744C49.6897 33.744 50.039 33.8853 50.2684 34.168C50.503 34.4507 50.6204 34.824 50.6204 35.288V38H49.9004V35.368C49.9004 35.0693 49.8284 34.8293 49.6844 34.648C49.5457 34.4667 49.351 34.376 49.1004 34.376C48.855 34.376 48.623 34.464 48.4044 34.64C48.1857 34.8107 47.999 35.0133 47.8444 35.248V38H47.1244ZM53.3868 39.856C53.1414 39.856 52.9014 39.8267 52.6668 39.768C52.4374 39.7093 52.2321 39.6213 52.0508 39.504L52.3148 38.88C52.4428 38.9813 52.5921 39.064 52.7628 39.128C52.9334 39.1973 53.1414 39.232 53.3868 39.232C53.7654 39.232 54.0614 39.1307 54.2748 38.928C54.4934 38.7307 54.6028 38.4133 54.6028 37.976V37.464C54.4961 37.592 54.3414 37.7147 54.1388 37.832C53.9414 37.944 53.7041 38 53.4268 38C53.1121 38 52.8134 37.92 52.5308 37.76C52.2481 37.5947 52.0188 37.3547 51.8428 37.04C51.6668 36.7253 51.5788 36.3467 51.5788 35.904C51.5788 35.488 51.6641 35.1173 51.8348 34.792C52.0108 34.4667 52.2454 34.2107 52.5388 34.024C52.8321 33.8373 53.1548 33.744 53.5068 33.744C53.7414 33.744 53.9548 33.784 54.1468 33.864C54.3388 33.944 54.5041 34.0427 54.6428 34.16V33.84H55.2988V37.904C55.2988 38.3627 55.2188 38.736 55.0588 39.024C54.8988 39.312 54.6748 39.5227 54.3868 39.656C54.1041 39.7893 53.7708 39.856 53.3868 39.856ZM53.5868 37.36C53.8001 37.36 53.9921 37.312 54.1628 37.216C54.3334 37.12 54.4721 37.008 54.5788 36.88V34.704C54.4614 34.6187 54.3201 34.5413 54.1548 34.472C53.9894 34.4027 53.7974 34.368 53.5788 34.368C53.3601 34.368 53.1548 34.4267 52.9628 34.544C52.7708 34.6613 52.6134 34.832 52.4908 35.056C52.3734 35.2747 52.3148 35.544 52.3148 35.864C52.3148 36.168 52.3734 36.432 52.4908 36.656C52.6134 36.88 52.7708 37.0533 52.9628 37.176C53.1548 37.2987 53.3628 37.36 53.5868 37.36ZM60.4089 38.096C60.0195 38.096 59.6649 38.0453 59.3449 37.944C59.0249 37.8373 58.7555 37.6987 58.5369 37.528L58.9209 36.888C59.1129 37.048 59.3289 37.1787 59.5689 37.28C59.8089 37.3813 60.0889 37.432 60.4089 37.432C60.7929 37.432 61.0969 37.352 61.3209 37.192C61.5449 37.032 61.6569 36.816 61.6569 36.544C61.6569 36.3893 61.6249 36.2533 61.5609 36.136C61.4969 36.0133 61.3715 35.896 61.1849 35.784C61.0035 35.6667 60.7342 35.5413 60.3769 35.408C59.9929 35.2587 59.6862 35.1093 59.4569 34.96C59.2275 34.8053 59.0622 34.632 58.9609 34.44C58.8649 34.2427 58.8169 34.0107 58.8169 33.744C58.8169 33.4773 58.8889 33.2373 59.0329 33.024C59.1822 32.8053 59.3982 32.632 59.6809 32.504C59.9689 32.3707 60.3155 32.304 60.7209 32.304C61.0515 32.304 61.3475 32.3387 61.6089 32.408C61.8755 32.472 62.1342 32.5653 62.3849 32.688L62.1049 33.336C61.9235 33.2293 61.7102 33.1413 61.4649 33.072C61.2249 32.9973 60.9715 32.96 60.7049 32.96C60.3529 32.96 60.0755 33.0293 59.8729 33.168C59.6702 33.3067 59.5689 33.4853 59.5689 33.704C59.5689 33.8427 59.5982 33.9653 59.6569 34.072C59.7155 34.1787 59.8302 34.2827 60.0009 34.384C60.1769 34.4853 60.4382 34.6 60.7849 34.728C61.2009 34.8827 61.5289 35.0453 61.7689 35.216C62.0142 35.3867 62.1875 35.5733 62.2889 35.776C62.3902 35.9733 62.4409 36.2 62.4409 36.456C62.4409 36.8027 62.3529 37.0987 62.1769 37.344C62.0062 37.5893 61.7662 37.776 61.4569 37.904C61.1529 38.032 60.8035 38.096 60.4089 38.096ZM65.2358 38.096C64.8411 38.096 64.4864 38.0053 64.1718 37.824C63.8571 37.6373 63.6091 37.3813 63.4278 37.056C63.2518 36.7253 63.1638 36.3467 63.1638 35.92C63.1638 35.472 63.2544 35.0853 63.4358 34.76C63.6171 34.4347 63.8651 34.184 64.1798 34.008C64.4944 33.832 64.8464 33.744 65.2358 33.744C65.6251 33.744 65.9744 33.832 66.2838 34.008C66.5984 34.184 66.8464 34.4347 67.0278 34.76C67.2144 35.08 67.3078 35.4613 67.3078 35.904C67.3078 36.3467 67.2171 36.7333 67.0358 37.064C66.8544 37.3893 66.6064 37.6427 66.2918 37.824C65.9824 38.0053 65.6304 38.096 65.2358 38.096ZM65.2358 37.456C65.6571 37.456 65.9851 37.3147 66.2198 37.032C66.4544 36.744 66.5718 36.3733 66.5718 35.92C66.5718 35.6427 66.5131 35.3893 66.3958 35.16C66.2784 34.9253 66.1184 34.7387 65.9158 34.6C65.7184 34.456 65.4918 34.384 65.2358 34.384C64.8144 34.384 64.4864 34.5227 64.2518 34.8C64.0171 35.0773 63.8997 35.4453 63.8997 35.904C63.8997 36.1813 63.9584 36.44 64.0758 36.68C64.1931 36.9147 64.3504 37.104 64.5478 37.248C64.7504 37.3867 64.9798 37.456 65.2358 37.456ZM69.529 38.096C69.2837 38.096 69.0623 38.0507 68.865 37.96C68.6677 37.864 68.5103 37.712 68.393 37.504C68.281 37.296 68.225 37.0267 68.225 36.696V32.08H68.945V36.624C68.945 36.912 69.0037 37.1253 69.121 37.264C69.2437 37.4027 69.4117 37.472 69.625 37.472C69.7263 37.472 69.825 37.4613 69.921 37.44C70.0223 37.4133 70.1077 37.384 70.177 37.352L70.353 37.936C70.257 37.9787 70.137 38.016 69.993 38.048C69.8543 38.08 69.6997 38.096 69.529 38.096ZM72.2734 38.096C72.0334 38.096 71.8068 38.0453 71.5934 37.944C71.3801 37.8427 71.2068 37.68 71.0734 37.456C70.9401 37.2267 70.8734 36.9227 70.8734 36.544V33.84H71.5934V36.448C71.5934 36.7733 71.6628 37.024 71.8014 37.2C71.9401 37.3707 72.1428 37.456 72.4094 37.456C72.6281 37.456 72.8388 37.4133 73.0414 37.328C73.2494 37.2373 73.4334 37.1173 73.5934 36.968V33.84H74.3134V36.92C74.3134 37.1493 74.3614 37.3013 74.4574 37.376C74.5588 37.4453 74.6681 37.48 74.7854 37.48L74.6334 38.04C74.1374 38.04 73.8308 37.8427 73.7134 37.448C73.5268 37.64 73.3108 37.7973 73.0654 37.92C72.8201 38.0373 72.5561 38.096 72.2734 38.096ZM77.1976 38.096C76.7976 38.096 76.4802 37.9653 76.2456 37.704C76.0162 37.4373 75.9016 37.0587 75.9016 36.568V34.616H75.1816V33.992H75.9176L76.0696 32.68H76.6216V33.992H77.7736V34.616H76.6216V36.624C76.6216 36.9333 76.6856 37.1493 76.8136 37.272C76.9469 37.3947 77.1042 37.456 77.2856 37.456C77.4189 37.456 77.5442 37.4347 77.6616 37.392C77.7842 37.3493 77.8962 37.2987 77.9976 37.24L78.1976 37.816C78.0909 37.88 77.9469 37.9413 77.7656 38C77.5842 38.064 77.3949 38.096 77.1976 38.096ZM78.9213 38V33.84H79.6413V38H78.9213ZM79.2812 33.128C79.1426 33.128 79.0226 33.0773 78.9213 32.976C78.8253 32.8747 78.7773 32.7573 78.7773 32.624C78.7773 32.4693 78.8226 32.3467 78.9133 32.256C79.0039 32.1653 79.1266 32.12 79.2812 32.12C79.4199 32.12 79.5373 32.1707 79.6333 32.272C79.7346 32.368 79.7853 32.4853 79.7853 32.624C79.7853 32.7733 79.7399 32.896 79.6493 32.992C79.5586 33.0827 79.4359 33.128 79.2812 33.128ZM82.6733 38.096C82.2786 38.096 81.9239 38.0053 81.6093 37.824C81.2946 37.6373 81.0466 37.3813 80.8653 37.056C80.6893 36.7253 80.6013 36.3467 80.6013 35.92C80.6013 35.472 80.6919 35.0853 80.8733 34.76C81.0546 34.4347 81.3026 34.184 81.6173 34.008C81.9319 33.832 82.2839 33.744 82.6733 33.744C83.0626 33.744 83.4119 33.832 83.7213 34.008C84.0359 34.184 84.2839 34.4347 84.4653 34.76C84.6519 35.08 84.7453 35.4613 84.7453 35.904C84.7453 36.3467 84.6546 36.7333 84.4733 37.064C84.2919 37.3893 84.0439 37.6427 83.7293 37.824C83.4199 38.0053 83.0679 38.096 82.6733 38.096ZM82.6733 37.456C83.0946 37.456 83.4226 37.3147 83.6573 37.032C83.8919 36.744 84.0093 36.3733 84.0093 35.92C84.0093 35.6427 83.9506 35.3893 83.8333 35.16C83.7159 34.9253 83.5559 34.7387 83.3533 34.6C83.1559 34.456 82.9293 34.384 82.6733 34.384C82.2519 34.384 81.9239 34.5227 81.6893 34.8C81.4546 35.0773 81.3372 35.4453 81.3372 35.904C81.3372 36.1813 81.3959 36.44 81.5133 36.68C81.6306 36.9147 81.7879 37.104 81.9853 37.248C82.1879 37.3867 82.4173 37.456 82.6733 37.456ZM85.7025 38V33.84H86.3985V34.536C86.5478 34.312 86.7372 34.1253 86.9665 33.976C87.2012 33.8213 87.4785 33.744 87.7985 33.744C88.2678 33.744 88.6172 33.8853 88.8465 34.168C89.0812 34.4507 89.1985 34.824 89.1985 35.288V38H88.4785V35.368C88.4785 35.0693 88.4065 34.8293 88.2625 34.648C88.1238 34.4667 87.9292 34.376 87.6785 34.376C87.4332 34.376 87.2012 34.464 86.9825 34.64C86.7638 34.8107 86.5772 35.0133 86.4225 35.248V38H85.7025ZM91.5569 38.096C91.2422 38.096 90.9569 38.056 90.7009 37.976C90.4502 37.896 90.2422 37.792 90.0769 37.664L90.3809 37.064C90.5195 37.1813 90.6929 37.28 90.9009 37.36C91.1142 37.4347 91.3409 37.472 91.5809 37.472C91.8795 37.472 92.1035 37.424 92.2529 37.328C92.4075 37.2267 92.4849 37.0987 92.4849 36.944C92.4849 36.832 92.4555 36.7333 92.3969 36.648C92.3435 36.5627 92.2422 36.48 92.0929 36.4C91.9435 36.3147 91.7275 36.224 91.4449 36.128C91.0555 35.9947 90.7622 35.8373 90.5649 35.656C90.3729 35.4693 90.2769 35.2133 90.2769 34.888C90.2769 34.568 90.4155 34.2987 90.6929 34.08C90.9755 33.856 91.3649 33.744 91.8609 33.744C92.1275 33.744 92.3649 33.7733 92.5729 33.832C92.7809 33.8853 92.9675 33.9547 93.1329 34.04L92.9329 34.632C92.7889 34.5467 92.6235 34.4773 92.4369 34.424C92.2555 34.3707 92.0529 34.344 91.8289 34.344C91.5515 34.344 91.3409 34.4 91.1969 34.512C91.0529 34.624 90.9809 34.7467 90.9809 34.88C90.9809 35.008 91.0369 35.1173 91.1489 35.208C91.2609 35.2987 91.4795 35.3973 91.8049 35.504C92.3329 35.68 92.7009 35.8747 92.9089 36.088C93.1169 36.3013 93.2209 36.568 93.2209 36.888C93.2209 37.2613 93.0689 37.5573 92.7649 37.776C92.4662 37.9893 92.0635 38.096 91.5569 38.096Z" fill="black"/>
</svg>
